<?xml version="1.0" encoding="utf-8"?>
<!-- Generator: Adobe Illustrator 25.0.0, SVG Export Plug-In . SVG Version: 6.00 Build 0)  -->
<svg version="1.1" id="Layer_1" xmlns="http://www.w3.org/2000/svg" xmlns:xlink="http://www.w3.org/1999/xlink" x="0px" y="0px"
	 viewBox="0 0 107.08 74.16" style="enable-background:new 0 0 107.08 74.16;" xml:space="preserve">
<style type="text/css">
	.st0{clip-path:url(#SVGID_2_);fill:#C4E9FB;}
	.st1{clip-path:url(#SVGID_2_);fill:#00B9EB;}
	.st2{clip-path:url(#SVGID_2_);fill:#E97DB1;}
	.st3{clip-path:url(#SVGID_2_);fill:#8BD7F8;}
	.st4{clip-path:url(#SVGID_2_);fill:#04C0DF;}
	.st5{clip-path:url(#SVGID_2_);fill:#2884A6;}
	.st6{clip-path:url(#SVGID_2_);fill:#0083AE;}
</style>
<g>
	<defs>
		<rect id="SVGID_1_" x="2.38" y="2.22" width="101.91" height="70.06"/>
	</defs>
	<clipPath id="SVGID_2_">
		<use xlink:href="#SVGID_1_"  style="overflow:visible;"/>
	</clipPath>
	<path class="st0" d="M96.78,34.07c-1.92,0-3.85,0.73-5.31,2.2L81.13,46.61v18.14c0,1.11-0.24,2.17-0.68,3.12
		c-0.31,0.69-0.74,1.33-1.26,1.92c-0.08,0.08-0.15,0.17-0.24,0.25l23.15-23.15c2.93-2.94,2.93-7.69,0-10.63
		C100.63,34.81,98.7,34.07,96.78,34.07"/>
	<path class="st1" d="M50.44,34.07c-1.92,0-3.85,0.73-5.31,2.2c-2.93,2.94-2.93,7.69,0,10.63l23.12,23.12
		c-0.19-0.19-0.37-0.4-0.53-0.61c-0.31-0.39-0.58-0.81-0.8-1.24c-0.52-1.02-0.82-2.18-0.82-3.41V46.61L55.75,36.27
		C54.29,34.81,52.36,34.07,50.44,34.07"/>
	<path class="st2" d="M80.45,67.88c-0.32,0.7-0.75,1.35-1.26,1.92C79.71,69.22,80.13,68.57,80.45,67.88 M66.91,68.17
		c0.22,0.43,0.49,0.85,0.8,1.25C67.4,69.02,67.14,68.61,66.91,68.17 M78.74,70.25c-0.68,0.64-1.49,1.15-2.37,1.5
		C77.23,71.41,78.03,70.91,78.74,70.25 M68.76,70.5c0.61,0.51,1.27,0.91,1.98,1.2C70.02,71.41,69.35,71,68.76,70.5 M73.66,72.27
		L73.66,72.27L73.66,72.27 M73.56,72.27L73.56,72.27z M73.64,72.27L73.64,72.27L73.64,72.27 M73.58,72.27L73.58,72.27L73.58,72.27
		 M73.63,72.27L73.63,72.27L73.63,72.27 M73.59,72.27L73.59,72.27L73.59,72.27 M73.62,72.27h-0.01H73.6h0.01H73.62"/>
	<path class="st3" d="M41.75,2.22c-21.71,0-39.37,17.66-39.37,39.37c0,4.15,3.36,7.51,7.52,7.51c4.15,0,7.51-3.37,7.51-7.51
		c0-13.42,10.92-24.34,24.34-24.34c13.42,0,24.34,10.92,24.34,24.34v5.02l7.52,7.52l7.51-7.52v-5.03
		C81.13,19.88,63.46,2.22,41.75,2.22 M68.24,70.02c0.17,0.17,0.34,0.33,0.52,0.48c-0.16-0.14-0.32-0.28-0.47-0.43L68.24,70.02z
		 M78.95,70.05l-0.02,0.02c-0.06,0.06-0.12,0.12-0.18,0.17C78.81,70.18,78.88,70.11,78.95,70.05 M70.74,71.71
		c0.87,0.36,1.82,0.56,2.82,0.57C72.6,72.27,71.64,72.08,70.74,71.71 M76.37,71.75c-0.87,0.34-1.79,0.52-2.72,0.52
		C74.61,72.27,75.53,72.08,76.37,71.75 M73.57,72.27c0,0,0.01,0,0.01,0C73.57,72.27,73.57,72.27,73.57,72.27 M73.66,72.27
		c0,0-0.01,0-0.01,0C73.65,72.27,73.65,72.27,73.66,72.27 M73.58,72.27C73.58,72.27,73.58,72.27,73.58,72.27
		C73.58,72.27,73.58,72.27,73.58,72.27 M73.64,72.27C73.64,72.27,73.64,72.27,73.64,72.27C73.64,72.27,73.64,72.27,73.64,72.27
		 M73.59,72.27C73.6,72.27,73.6,72.27,73.59,72.27C73.6,72.27,73.59,72.27,73.59,72.27 M73.63,72.27
		C73.63,72.27,73.62,72.27,73.63,72.27C73.62,72.27,73.63,72.27,73.63,72.27"/>
	<path class="st4" d="M81.13,46.61l-7.52,7.51l5.32,5.32c2.28,2.28,2.79,5.67,1.52,8.44c0.44-0.95,0.68-2.01,0.68-3.13V46.61z
		 M79.18,69.8c-0.08,0.09-0.17,0.18-0.26,0.27c-0.06,0.06-0.12,0.12-0.18,0.18c0.06-0.06,0.12-0.11,0.18-0.18l0.02-0.02
		C79.03,69.97,79.11,69.88,79.18,69.8"/>
	<path class="st5" d="M66.09,46.61v18.14c0,1.23,0.29,2.38,0.81,3.41c-1.44-2.82-0.97-6.36,1.39-8.72l5.31-5.31L66.09,46.61z
		 M67.71,69.41c0.17,0.21,0.35,0.41,0.53,0.61l0.05,0.05C68.08,69.86,67.89,69.64,67.71,69.41"/>
	<path class="st6" d="M73.61,54.13l-5.31,5.31c-2.36,2.36-2.82,5.9-1.39,8.72c0.22,0.44,0.49,0.86,0.8,1.24
		c0.18,0.23,0.38,0.45,0.59,0.66c0.15,0.15,0.31,0.29,0.47,0.43c0.59,0.5,1.25,0.91,1.98,1.2c0.9,0.37,1.86,0.56,2.82,0.57
		c0,0,0.01,0,0.01,0h0c0,0,0.01,0,0.01,0h0.01c0,0,0,0,0.01,0h0.01h0.01c0,0,0,0,0.01,0h0.01c0,0,0.01,0,0.01,0h0c0,0,0.01,0,0.01,0
		c0.92,0,1.85-0.18,2.72-0.52c0.89-0.35,1.69-0.86,2.37-1.5c0.06-0.06,0.12-0.11,0.18-0.17c0.09-0.09,0.18-0.18,0.26-0.27
		c0.51-0.57,0.94-1.21,1.26-1.92c1.27-2.77,0.76-6.16-1.52-8.44L73.61,54.13z"/>
</g>
</svg>
