<?xml version="1.0" encoding="utf-8"?>
<!-- Generator: Adobe Illustrator 25.0.0, SVG Export Plug-In . SVG Version: 6.00 Build 0)  -->
<svg version="1.1" id="Layer_1" xmlns="http://www.w3.org/2000/svg" xmlns:xlink="http://www.w3.org/1999/xlink" x="0px" y="0px"
	 viewBox="0 0 44.67 44.44" style="enable-background:new 0 0 44.67 44.44;" xml:space="preserve">
<style type="text/css">
	.st0{clip-path:url(#SVGID_2_);fill:#FFFFFF;}
</style>
<g>
	<defs>
		<rect id="SVGID_1_" x="4.2" y="3.75" width="36.72" height="36.72"/>
	</defs>
	<clipPath id="SVGID_2_">
		<use xlink:href="#SVGID_1_"  style="overflow:visible;"/>
	</clipPath>
	<path class="st0" d="M32.56,22.29c0,0.01,0,0.01,0,0.02c0,0.01,0,0.01,0,0.02c0,0.01,0,0.02,0,0.02c0,0.02,0,0.04-0.01,0.06v0
		c0,0.01,0,0.01,0,0.02c0,0.01-0.01,0.03-0.01,0.04c0,0.02-0.01,0.04-0.01,0.06c0,0.02-0.01,0.03-0.01,0.05
		c0,0.02-0.01,0.04-0.01,0.06c0,0.02-0.01,0.03-0.01,0.05c0,0.01,0,0.02-0.01,0.02l0,0c0,0.01-0.01,0.02-0.01,0.02
		c-0.01,0.02-0.01,0.03-0.02,0.05l0,0.01l0,0.01c0,0.01-0.01,0.01-0.01,0.02c-0.01,0.02-0.01,0.03-0.02,0.05
		c0,0.01-0.01,0.02-0.01,0.03c0,0.01-0.01,0.01-0.01,0.02c-0.01,0.01-0.01,0.03-0.02,0.04c-0.01,0.01-0.01,0.02-0.02,0.03
		c0,0.01-0.01,0.01-0.01,0.02c0,0.01-0.01,0.02-0.02,0.03c-0.01,0.02-0.01,0.03-0.02,0.05l-0.01,0.01
		c-0.01,0.01-0.01,0.02-0.01,0.02c-0.01,0.02-0.02,0.04-0.03,0.06l-0.01,0.01c0,0.01-0.01,0.01-0.01,0.02
		c-0.01,0.02-0.03,0.04-0.04,0.06l0,0c0,0.01-0.01,0.01-0.01,0.02c-0.01,0.02-0.03,0.05-0.05,0.07c0,0.01-0.01,0.01-0.01,0.02
		c-0.02,0.02-0.03,0.04-0.05,0.06l-0.01,0.01l0,0l-6.58,7.93c-0.42,0.51-1.02,0.77-1.64,0.77c-0.48,0-0.96-0.16-1.35-0.49
		c-0.9-0.75-1.03-2.09-0.28-2.99l3.69-4.45H13.49c-1.17,0-2.12-0.95-2.12-2.12c0-1.17,0.95-2.12,2.12-2.12h12.43l-3.69-4.45
		c-0.75-0.9-0.62-2.24,0.28-2.99c0.9-0.75,2.24-0.62,2.99,0.28l6.58,7.93l0,0l0.01,0.01c0.02,0.02,0.03,0.04,0.05,0.07
		c0,0,0.01,0.01,0.01,0.01c0.02,0.02,0.03,0.05,0.05,0.07c0,0.01,0.01,0.01,0.01,0.02l0,0c0.01,0.02,0.03,0.04,0.04,0.06
		c0,0.01,0.01,0.01,0.01,0.02l0.01,0.01c0.01,0.02,0.02,0.04,0.03,0.05c0,0.01,0.01,0.02,0.01,0.03l0.01,0.01
		c0.01,0.01,0.01,0.03,0.02,0.05c0.01,0.01,0.01,0.02,0.02,0.03c0,0.01,0.01,0.01,0.01,0.02c0.01,0.01,0.01,0.02,0.02,0.03
		c0.01,0.01,0.01,0.03,0.02,0.04c0,0.01,0,0.02,0.01,0.02c0,0.01,0.01,0.02,0.01,0.03c0.01,0.02,0.01,0.03,0.02,0.05
		c0,0.01,0.01,0.02,0.01,0.02l0,0.01l0,0.01c0.01,0.02,0.01,0.03,0.02,0.05c0,0.01,0,0.02,0.01,0.02h0c0,0.01,0,0.02,0.01,0.03
		c0.01,0.02,0.01,0.03,0.01,0.05c0.01,0.02,0.01,0.04,0.01,0.06c0,0.02,0.01,0.03,0.01,0.05c0,0.02,0.01,0.04,0.01,0.06
		c0,0.01,0,0.03,0.01,0.04c0,0.01,0,0.01,0,0.02c0,0.02,0.01,0.04,0.01,0.06c0,0.01,0,0.02,0,0.02c0,0,0,0.01,0,0.02
		c0,0,0,0.01,0,0.01c0,0.03,0,0.06,0.01,0.08c0,0.01,0,0.02,0,0.04c0,0.02,0,0.04,0,0.06v0v0c0,0.02,0,0.04,0,0.06
		c0,0.01,0,0.02,0,0.04C32.56,22.24,32.56,22.26,32.56,22.29"/>
	<path class="st0" d="M35.54,35.09c-1.69,1.69-3.65,3.01-5.84,3.93c-2.26,0.96-4.67,1.44-7.15,1.44c-2.48,0-4.88-0.49-7.15-1.44
		c-2.19-0.92-4.15-2.25-5.84-3.93c-1.68-1.68-3.01-3.65-3.93-5.83c-0.96-2.26-1.44-4.67-1.44-7.15c0-2.48,0.49-4.88,1.44-7.15
		c0.92-2.19,2.25-4.15,3.93-5.84c1.69-1.68,3.65-3.01,5.84-3.93c2.26-0.96,4.67-1.44,7.15-1.44c2.48,0,4.88,0.49,7.15,1.44
		c2.19,0.92,4.15,2.25,5.84,3.93c1.69,1.69,3.01,3.65,3.93,5.84c0.96,2.26,1.44,4.67,1.44,7.15c0,2.48-0.49,4.88-1.44,7.15
		C38.55,31.44,37.23,33.41,35.54,35.09 M22.56,8C14.78,8,8.45,14.33,8.45,22.11s6.33,14.11,14.11,14.11
		c7.78,0,14.11-6.33,14.11-14.11S30.34,8,22.56,8"/>
</g>
</svg>
