<svg xmlns="http://www.w3.org/2000/svg" viewBox="0 0 74.79 89.66"><defs><style>.cls-1{fill:none;stroke:#343a40;stroke-linecap:round;stroke-linejoin:round;stroke-width:1.86px;}</style></defs><g id="Layer_2" data-name="Layer 2"><g id="Layer_1-2" data-name="Layer 1"><path class="cls-1" d="M73.84,88.73c0-15.57,1.6-27.22-23-33.36"/><path class="cls-1" d="M27.85,54.5h0C-.79,60.29,1,72.4,1,88.73"/><path class="cls-1" d="M13.64,23.16C13.79,11.22,22.12.93,37.4.93S61,11.22,61.16,23.16"/><path class="cls-1" d="M19.18,30.28a1.08,1.08,0,0,1,.37,0c.07,0,.59,0,.66,0,4-1.31,8.29-2.41,9.57-10.38,5.23,10.4,26.4,11.71,27.74,10.4"/><path class="cls-1" d="M52.72,46.6A34.21,34.21,0,0,0,55.35,39l2.17-.4"/><path class="cls-1" d="M17.27,38.59h2c1.85,8.84,8,19.56,18.14,19.73a15.61,15.61,0,0,0,2.08-.19"/><path class="cls-1" d="M57.52,40.42a3.26,3.26,0,0,0,4.61,2.95,11.07,11.07,0,0,0,.76-19.75,3.61,3.61,0,0,0-5.37,3.16Z"/><path class="cls-1" d="M17.27,40.42a3.25,3.25,0,0,1-4.6,2.95,11.07,11.07,0,0,1-.76-19.76,3.61,3.61,0,0,1,5.36,3.17Z"/><polyline class="cls-1" points="50.81 55.37 37.4 88.73 54.01 69.05 60.9 69.05 50.81 55.37"/><polyline class="cls-1" points="23.98 55.37 37.4 88.73 20.78 69.05 13.89 69.05 23.98 55.37"/><path class="cls-1" d="M43.91,54.86a3.63,3.63,0,1,0,0-7.26H41.74a3.63,3.63,0,0,0,0,7.26Z"/><path class="cls-1" d="M57.53,38.59v5.1A7.52,7.52,0,0,1,53,50.6a7.43,7.43,0,0,1-3,.63H47.54"/><path class="cls-1" d="M15.5,23.66C15.5,10.78,28.88,5.89,37,5.89h.8c8.12,0,21.5,4.89,21.5,17.77"/><line class="cls-1" x1="62.13" y1="88.73" x2="62.13" y2="80.56"/><line class="cls-1" x1="12.66" y1="88.73" x2="12.66" y2="80.56"/><line class="cls-1" x1="62.12" y1="55.44" x2="62.12" y2="43.38"/><line class="cls-1" x1="12.67" y1="55.44" x2="12.67" y2="43.38"/></g></g></svg>