<?xml version="1.0" encoding="utf-8"?>
<!-- Generator: Adobe Illustrator 25.0.0, SVG Export Plug-In . SVG Version: 6.00 Build 0)  -->
<svg version="1.1" id="Layer_1" xmlns="http://www.w3.org/2000/svg" xmlns:xlink="http://www.w3.org/1999/xlink" x="0px" y="0px"
	 viewBox="0 0 14.64 14.18" style="enable-background:new 0 0 14.64 14.18;" xml:space="preserve">
<style type="text/css">
	.st0{clip-path:url(#SVGID_2_);fill:#50CAF2;}
</style>
<g>
	<defs>
		<rect id="SVGID_1_" x="0.69" y="0.76" width="13.25" height="12.66"/>
	</defs>
	<clipPath id="SVGID_2_">
		<use xlink:href="#SVGID_1_"  style="overflow:visible;"/>
	</clipPath>
	<path class="st0" d="M12.92,11.76L9.87,8.71l3.02-2.43c0.01,0.09,0.02,0.17,0.02,0.26V11.76z M2.55,12.39l3.05-3.05l1.43,1.14
		c0.09,0.07,0.21,0.11,0.32,0.11c0.11,0,0.23-0.04,0.32-0.11l1.38-1.11l3.03,3.03H2.55z M1.72,11.77V6.53
		c0-0.09,0.01-0.17,0.02-0.26L4.79,8.7L1.72,11.77z M13.85,5.52L13.85,5.52L13.85,5.52c-0.1-0.28-0.26-0.53-0.49-0.73l-0.41-0.36
		c-0.02-0.02-0.05-0.04-0.07-0.06L12.04,3.7v1.31l0.22,0.18h0c0.06,0.05,0.11,0.1,0.16,0.15l-0.15,0.12L7.36,9.42L2.38,5.46
		L2.21,5.33c0.05-0.05,0.1-0.1,0.16-0.14L2.6,5V3.68l-0.88,0.7l-0.45,0.4c-0.22,0.2-0.39,0.45-0.48,0.72l0,0
		C0.72,5.7,0.69,5.89,0.69,6.08v5.87c0,0.81,0.66,1.47,1.47,1.47h10.31c0.81,0,1.47-0.66,1.47-1.47V6.08
		C13.94,5.89,13.91,5.7,13.85,5.52"/>
	<path class="st0" d="M3.13,2.58v2.68v0.13L4.03,6.1V1.67h6.57v4.46l0.91-0.73V5.27V2.6v0V1.21c0-0.25-0.2-0.45-0.45-0.45H3.58
		c-0.25,0-0.45,0.2-0.45,0.45V2.58z"/>
	<path class="st0" d="M7.35,4.14c-0.16,0-0.29,0.09-0.39,0.27C6.85,4.6,6.8,4.81,6.8,5.05c0,0.17,0.03,0.3,0.1,0.4
		c0.07,0.09,0.16,0.14,0.26,0.14c0.17,0,0.3-0.09,0.4-0.27C7.66,5.14,7.71,4.9,7.71,4.6c0-0.14-0.03-0.26-0.1-0.34
		C7.54,4.18,7.46,4.14,7.35,4.14 M7.7,5.55H7.68C7.56,5.89,7.33,6.06,7.01,6.06c-0.25,0-0.44-0.09-0.59-0.27
		C6.26,5.62,6.19,5.37,6.19,5.06c0-0.41,0.1-0.74,0.31-0.99c0.21-0.26,0.46-0.38,0.75-0.38c0.27,0,0.43,0.1,0.5,0.31h0.01l0.03-0.26
		h0.6C8.31,4.49,8.27,4.98,8.27,5.21c0,0.25,0.07,0.37,0.2,0.37c0.14,0,0.26-0.1,0.35-0.28c0.09-0.19,0.14-0.43,0.14-0.74
		c0-0.42-0.13-0.76-0.4-1.02c-0.27-0.27-0.64-0.4-1.11-0.4c-0.51,0-0.93,0.18-1.27,0.53c-0.34,0.36-0.51,0.79-0.51,1.3
		c0,0.49,0.15,0.88,0.45,1.17c0.3,0.28,0.71,0.43,1.24,0.43c0.4,0,0.77-0.08,1.1-0.23v0.51c-0.3,0.13-0.7,0.19-1.17,0.19
		c-0.66,0-1.19-0.19-1.6-0.56C5.27,6.1,5.07,5.6,5.07,4.96c0-0.65,0.22-1.19,0.66-1.63c0.44-0.44,1.01-0.66,1.7-0.66
		c0.64,0,1.16,0.17,1.56,0.51c0.4,0.34,0.59,0.79,0.59,1.35c0,0.46-0.12,0.83-0.36,1.11c-0.24,0.28-0.54,0.42-0.9,0.42
		c-0.18,0-0.32-0.05-0.43-0.14C7.77,5.83,7.71,5.7,7.7,5.55"/>
</g>
</svg>
