<?xml version="1.0" encoding="utf-8"?>
<svg version="1.1" xmlns="http://www.w3.org/2000/svg" xmlns:xlink="http://www.w3.org/1999/xlink" x="0px" y="0px"
	 viewBox="0 0 563.9 61.9" style="enable-background:new 0 0 563.9 61.9;" xml:space="preserve">
	<path fill="#ff6b0b" d="M17.4,17.8h41.3c0.8,0,1.1-0.9,0.6-1.4L43.1,0.2C43,0.1,42.8,0,42.5,0H0.8C0.4,0,0,0.3,0,0.8v41.8
		c0,0.2,0.1,0.4,0.2,0.6L16,58.7c0.6,0.6,1.4,0.1,1.4-0.6V17.8z"/>
	<path fill="#343a40" d="M80.7,23.4c0-0.6,0.4-1,1-1h22.8c0.6,0,1,0.4,1,1v6c0,0.6-0.4,1-1,1H89.3v8h12.6c0.6,0,1,0.4,1,1v6
		c0,0.6-0.4,1-1,1H89.3v13.4c0,0.6-0.4,1-1,1h-6.5c-0.6,0-1-0.4-1-1V23.4H80.7z M113,23.4v36.5c0,0.6,0.4,1,1,1h6.8c0.6,0,1-0.4,1-1
		v-14h3.8l7.3,14.8c0.1,0.2,0.5,0.4,0.9,0.4h7.3c0.9,0,1.2-0.9,0.9-1.6l-7.5-14c4.9-1.9,8.2-6,8.2-11.1c0-6.7-5.5-12-12.1-12h-16.5
		c-0.6,0-1,0.4-1,1H113z M121.8,38.8v-8.6h8.2c2.3,0,4.2,1.9,4.2,4.2s-2,4.4-4.2,4.4H121.8z M151.6,59.7c0,0.6,0.4,1,1,1h22.8
		c0.6,0,1-0.4,1-1v-6c0-0.6-0.4-1-1-1h-15.3v-7.4h12.6c0.6,0,1-0.4,1-1v-6c0-0.6-0.4-1-1-1h-12.6v-6.9h15.3c0.6,0,1-0.4,1-1v-6
		c0-0.6-0.4-1-1-1h-22.8c-0.6,0-1,0.4-1,1V59.7z M185.9,59.9c0,0.6,0.4,1,1,1h6.6c0.6,0,1-0.4,1-1V23.4c0-0.6-0.4-1-1-1h-6.6
		c-0.6,0-1,0.4-1,1V59.9z M203.3,41.7c0,10.9,8.8,19.7,19.8,19.7c7.9,0,13.6-3.5,13.6-3.5c0.2-0.2,0.4-0.7,0.4-0.9L237,42.2
		c0-0.6-0.4-1-1-1h-11c-0.6,0-1,0.4-1,1v5.4c0,0.6,0.4,1,1,1h3.4v3.1c-1.7,0.7-3.3,0.9-4.9,0.9c-6.1,0-11-5-11-11
		c0-6.1,4.9-11.2,10.9-11.2c2.7,0,5.1,0.8,7.2,2.7c0.4,0.3,1,0.3,1.4,0l4.3-4.7c0.5-0.4,0.3-1.1-0.1-1.4c-3.6-3.3-8.7-5.2-13.4-5.2
		C211.8,21.8,203,30.7,203.3,41.7z M246.5,23.4v36.5c0,0.6,0.4,1,1,1h6.5c0.6,0,1-0.4,1-1V45.4h15.7v14.5c0,0.6,0.4,1,1,1h6.5
		c0.6,0,1-0.4,1-1V23.4c0-0.6-0.4-1-1-1h-6.5c-0.6,0-1,0.4-1,1v13.8H255V23.4c0-0.6-0.4-1-1-1h-6.5
		C246.9,22.4,246.5,22.8,246.5,23.4L246.5,23.4z M295.3,30.5v29.4c0,0.6,0.4,1,1,1h6.6c0.6,0,1-0.4,1-1V30.5h7.9c0.6,0,1-0.4,1-1v-6
		c0-0.6-0.4-1-1-1h-24.5c-0.6,0-1,0.4-1,1v6c0,0.6,0.4,1,1,1h7.9H295.3z M45.4,45.2H23.7c-0.7,0-1.1,0.4-1.1,1.1v12.9
		c0,0.7,0.4,1.1,1.1,1.1H59c0.7,0,1.1-0.4,1.1-1.1V23.7c0-0.7-0.4-1.1-1.1-1.1H46.5c-0.7,0-1.1,0.4-1.1,1.1V45.2z M341.2,26.1
		c-1.4-1.3-2.9-2.3-4.5-2.9c-1.7-0.6-3.5-1-5.6-1c-1.9,0-3.5,0.3-4.9,0.8c-1.4,0.6-2.7,1.3-3.6,2.2s-1.7,2-2.2,3.2s-0.8,2.5-0.8,3.8
		c0,1.7,0.3,3.1,0.9,4.2c0.6,1.1,1.3,2,2.3,2.8c0.9,0.7,2,1.4,3.2,1.8c1.2,0.5,2.4,0.9,3.7,1.3c1.3,0.4,2.5,0.8,3.7,1.2
		c1.2,0.4,2.3,0.9,3.2,1.5c0.9,0.6,1.7,1.3,2.3,2.2c0.6,0.9,0.9,2,0.9,3.4c0,1.3-0.2,2.5-0.7,3.6c-0.5,1.1-1.1,2.1-2,2.9
		s-1.9,1.4-3.2,1.9c-1.2,0.5-2.7,0.7-4.2,0.7c-1.2,0-2.2-0.1-3.1-0.3c-0.9-0.2-1.7-0.5-2.4-0.8c-0.7-0.3-1.3-0.7-1.8-1
		c-0.5-0.4-1-0.7-1.4-1c-0.4-0.3-0.7-0.6-1-0.8c-0.3-0.2-0.5-0.3-0.7-0.3c-0.3,0-0.6,0.1-0.8,0.4l-0.8,1.2c1.4,1.6,3.1,2.8,5,3.7
		c1.9,0.9,4.2,1.4,6.8,1.4c2,0,3.9-0.3,5.4-0.9c1.6-0.6,2.9-1.5,4-2.5c1.1-1.1,1.9-2.3,2.5-3.8c0.6-1.4,0.9-3,0.9-4.6
		c0-1.6-0.3-2.9-0.9-4c-0.6-1.1-1.3-2-2.3-2.7s-2-1.3-3.2-1.8c-1.2-0.5-2.4-0.9-3.7-1.3c-1.3-0.4-2.5-0.8-3.7-1.2
		c-1.2-0.4-2.3-0.9-3.2-1.5c-0.9-0.6-1.7-1.3-2.3-2.2c-0.6-0.9-0.9-2-0.9-3.3c0-1,0.2-2,0.6-2.9c0.4-0.9,1-1.7,1.7-2.4
		s1.7-1.2,2.8-1.7c1.1-0.4,2.4-0.6,3.8-0.6c1.5,0,2.7,0.2,3.7,0.5c1,0.3,1.8,0.7,2.5,1.1c0.7,0.4,1.2,0.8,1.6,1.1
		c0.4,0.3,0.7,0.5,0.9,0.5c0.3,0,0.6-0.2,0.7-0.5L341.2,26.1z M379.3,22.6v18.1h-25.1V22.6h-2.9v38.9h2.9V42.9h25.1v18.6h2.9V22.6
		H379.3z M397,22.6h-2.9v38.9h2.9V22.6z M408.9,22.6v38.9h2.9V45.8h7.5c2.2,0,4.2-0.3,5.9-0.9c1.8-0.6,3.2-1.4,4.5-2.4
		c1.2-1,2.2-2.3,2.8-3.7c0.7-1.4,1-3,1-4.7c0-3.7-1.2-6.6-3.6-8.6c-2.4-2-5.9-3-10.6-3H408.9z M411.8,43.6V24.8h7.5
		c3.8,0,6.6,0.8,8.5,2.4c1.9,1.6,2.8,3.9,2.8,6.9c0,1.4-0.3,2.6-0.8,3.8c-0.5,1.1-1.3,2.1-2.2,3c-1,0.8-2.2,1.5-3.6,2
		c-1.4,0.5-3,0.7-4.7,0.7H411.8z M441.6,22.6v38.9h2.9V45.8h7.5c2.2,0,4.2-0.3,5.9-0.9c1.8-0.6,3.2-1.4,4.5-2.4
		c1.2-1,2.2-2.3,2.8-3.7c0.7-1.4,1-3,1-4.7c0-3.7-1.2-6.6-3.6-8.6c-2.4-2-5.9-3-10.6-3H441.6z M444.5,43.6V24.8h7.5
		c3.8,0,6.6,0.8,8.5,2.4c1.9,1.6,2.8,3.9,2.8,6.9c0,1.4-0.3,2.6-0.8,3.8c-0.5,1.1-1.3,2.1-2.2,3c-1,0.8-2.2,1.5-3.6,2
		c-1.4,0.5-3,0.7-4.7,0.7H444.5z M477.3,22.6h-2.9v38.9h2.9V22.6z M517.5,22.6v32.6c0,0.5,0,1,0.1,1.6l-26-33.7
		c-0.2-0.2-0.3-0.4-0.5-0.4c-0.1-0.1-0.3-0.1-0.6-0.1h-1.4v38.9h2.5V28.7c0-0.5,0-1-0.1-1.6l26,33.8c0.2,0.2,0.3,0.3,0.5,0.4
		s0.4,0.1,0.6,0.1h1.4V22.6H517.5z M552.8,43.8v1.5c0,0.2,0.1,0.3,0.2,0.4s0.3,0.2,0.5,0.2h7.7v10.5c-0.9,0.5-1.8,0.9-2.6,1.3
		c-0.9,0.4-1.7,0.7-2.7,1c-0.9,0.3-1.9,0.5-2.9,0.6c-1,0.1-2.1,0.2-3.3,0.2c-2.7,0-5.2-0.4-7.3-1.2c-2.2-0.8-4-2-5.5-3.5
		c-1.5-1.5-2.7-3.4-3.5-5.6c-0.8-2.2-1.2-4.6-1.2-7.4c0-2.7,0.4-5.1,1.2-7.3c0.8-2.2,1.9-4,3.4-5.5s3.3-2.7,5.4-3.5
		c2.1-0.8,4.5-1.2,7.1-1.2c2,0,3.6,0.2,5,0.5c1.4,0.3,2.5,0.7,3.4,1.2c0.9,0.4,1.7,0.9,2.2,1.3c0.5,0.4,0.9,0.7,1.2,0.8
		c0.5,0.2,0.9,0.1,1.2-0.3l0.8-1.2c-0.9-0.8-1.8-1.4-2.8-2s-2-1.1-3.1-1.5c-1.1-0.4-2.3-0.7-3.6-0.9c-1.3-0.2-2.7-0.3-4.2-0.3
		c-3.1,0-5.9,0.5-8.4,1.4c-2.5,0.9-4.6,2.3-6.3,4c-1.7,1.7-3.1,3.8-4,6.3c-0.9,2.4-1.4,5.2-1.4,8.2c0,3,0.5,5.7,1.4,8.2
		c1,2.5,2.3,4.6,4.1,6.3s3.9,3.1,6.5,4c2.5,0.9,5.4,1.4,8.6,1.4c2.8,0,5.4-0.4,7.6-1.1c2.3-0.7,4.4-1.8,6.4-3.2V43.8H552.8z"/>
</svg>
