<?xml version="1.0" encoding="utf-8"?>
<!-- Generator: Adobe Illustrator 25.0.0, SVG Export Plug-In . SVG Version: 6.00 Build 0)  -->
<svg version="1.1" id="Layer_1" xmlns="http://www.w3.org/2000/svg" xmlns:xlink="http://www.w3.org/1999/xlink" x="0px" y="0px"
	 viewBox="0 0 461.07 131.86" style="enable-background:new 0 0 461.07 131.86;" xml:space="preserve">
<style type="text/css">
	.st0{fill:#343A40;}
	.st1{clip-path:url(#SVGID_2_);fill:#50CAF2;}
	.st2{clip-path:url(#SVGID_2_);fill:#B7D433;}
	.st3{clip-path:url(#SVGID_2_);fill:#00B9EB;}
	.st4{clip-path:url(#SVGID_2_);fill:#81D4F7;}
	.st5{clip-path:url(#SVGID_2_);fill:#BCE4E7;}
</style>
<g>
	<path class="st0" d="M119.58,44.51v-29.4h20.15v4.97h-14.22v6.96h12.27v4.97h-12.27v12.49H119.58z"/>
	<path class="st0" d="M146.08,44.51h-5.63v-21.3h5.23v3.03c0.9-1.43,1.7-2.37,2.42-2.83c0.71-0.46,1.53-0.68,2.44-0.68
		c1.28,0,2.52,0.35,3.71,1.06l-1.74,4.91c-0.95-0.62-1.83-0.92-2.65-0.92c-0.79,0-1.46,0.22-2.01,0.65
		c-0.55,0.43-0.98,1.22-1.29,2.36c-0.31,1.14-0.47,3.52-0.47,7.14V44.51z"/>
	<path class="st0" d="M167.19,37.73l5.61,0.94c-0.72,2.06-1.86,3.63-3.42,4.7c-1.56,1.08-3.51,1.61-5.85,1.61
		c-3.7,0-6.44-1.21-8.22-3.63c-1.4-1.94-2.11-4.38-2.11-7.34c0-3.53,0.92-6.29,2.77-8.29c1.84-2,4.18-3,7-3
		c3.17,0,5.67,1.05,7.5,3.14c1.83,2.09,2.71,5.3,2.63,9.62h-14.12c0.04,1.67,0.49,2.97,1.36,3.9c0.87,0.93,1.95,1.39,3.25,1.39
		c0.88,0,1.62-0.24,2.23-0.72C166.43,39.58,166.88,38.8,167.19,37.73z M167.51,32.04c-0.04-1.63-0.46-2.87-1.26-3.72
		c-0.8-0.85-1.78-1.27-2.93-1.27c-1.23,0-2.25,0.45-3.05,1.34s-1.2,2.11-1.18,3.65H167.51z"/>
	<path class="st0" d="M175.89,20.33v-5.21h5.63v5.21H175.89z M175.89,44.51v-21.3h5.63v21.3H175.89z"/>
	<path class="st0" d="M184.77,45.91l6.44,0.78c0.11,0.75,0.35,1.26,0.74,1.54c0.53,0.4,1.38,0.6,2.53,0.6
		c1.47,0,2.57-0.22,3.31-0.66c0.49-0.29,0.87-0.77,1.12-1.42c0.17-0.47,0.26-1.33,0.26-2.59v-3.11c-1.68,2.3-3.81,3.45-6.38,3.45
		c-2.86,0-5.13-1.21-6.8-3.63c-1.31-1.91-1.96-4.29-1.96-7.14c0-3.57,0.86-6.3,2.58-8.18c1.72-1.88,3.85-2.83,6.41-2.83
		c2.63,0,4.81,1.16,6.52,3.47v-2.99h5.27v19.11c0,2.51-0.21,4.39-0.62,5.63c-0.41,1.24-1,2.22-1.74,2.93
		c-0.75,0.71-1.75,1.26-3,1.66c-1.25,0.4-2.83,0.6-4.74,0.6c-3.61,0-6.17-0.62-7.68-1.85c-1.51-1.24-2.27-2.8-2.27-4.7
		C184.75,46.41,184.76,46.18,184.77,45.91z M189.8,33.42c0,2.26,0.44,3.91,1.31,4.96c0.88,1.05,1.96,1.57,3.24,1.57
		c1.38,0,2.54-0.54,3.49-1.61c0.95-1.08,1.42-2.67,1.42-4.78c0-2.21-0.45-3.84-1.36-4.91s-2.06-1.6-3.45-1.6
		c-1.35,0-2.46,0.53-3.34,1.57C190.24,29.67,189.8,31.27,189.8,33.42z"/>
	<path class="st0" d="M213.32,15.11v10.81c1.82-2.12,3.99-3.19,6.52-3.19c1.3,0,2.47,0.24,3.51,0.72c1.04,0.48,1.83,1.1,2.36,1.84
		c0.53,0.75,0.89,1.58,1.08,2.49s0.29,2.32,0.29,4.23v12.49h-5.63V33.26c0-2.23-0.11-3.65-0.32-4.25c-0.21-0.6-0.59-1.08-1.13-1.43
		c-0.54-0.35-1.22-0.53-2.04-0.53c-0.94,0-1.77,0.23-2.51,0.68c-0.74,0.46-1.27,1.14-1.61,2.06c-0.34,0.92-0.51,2.27-0.51,4.06
		v10.67h-5.63v-29.4H213.32z"/>
	<path class="st0" d="M240.54,23.21v4.49h-3.85v8.58c0,1.74,0.04,2.75,0.11,3.04c0.07,0.29,0.24,0.52,0.5,0.71s0.58,0.28,0.95,0.28
		c0.52,0,1.28-0.18,2.27-0.54l0.48,4.37c-1.31,0.56-2.79,0.84-4.45,0.84c-1.02,0-1.93-0.17-2.75-0.51s-1.41-0.78-1.79-1.32
		c-0.38-0.54-0.65-1.27-0.79-2.2c-0.12-0.66-0.18-1.98-0.18-3.97v-9.28h-2.59v-4.49h2.59v-4.23l5.65-3.29v7.52H240.54z"/>
	<path class="st0" d="M262.07,33.7l5.75,1.83c-0.88,3.21-2.35,5.59-4.4,7.15c-2.05,1.56-4.66,2.34-7.81,2.34
		c-3.9,0-7.11-1.33-9.62-4s-3.77-6.31-3.77-10.94c0-4.89,1.26-8.69,3.79-11.4c2.53-2.71,5.85-4.06,9.97-4.06
		c3.6,0,6.52,1.06,8.76,3.19c1.34,1.26,2.34,3.06,3.01,5.41l-5.88,1.4c-0.35-1.52-1.07-2.73-2.18-3.61
		c-1.1-0.88-2.44-1.32-4.02-1.32c-2.18,0-3.95,0.78-5.3,2.35s-2.04,4.1-2.04,7.6c0,3.72,0.67,6.36,2.01,7.94
		c1.34,1.58,3.07,2.37,5.21,2.37c1.58,0,2.93-0.5,4.07-1.5C260.76,37.43,261.58,35.85,262.07,33.7z"/>
	<path class="st0" d="M283.41,37.73l5.61,0.94c-0.72,2.06-1.86,3.63-3.42,4.7s-3.51,1.61-5.85,1.61c-3.7,0-6.44-1.21-8.22-3.63
		c-1.4-1.94-2.11-4.38-2.11-7.34c0-3.53,0.92-6.29,2.77-8.29c1.84-2,4.18-3,7-3c3.17,0,5.67,1.05,7.5,3.14
		c1.83,2.09,2.71,5.3,2.63,9.62H275.2c0.04,1.67,0.49,2.97,1.36,3.9c0.87,0.93,1.95,1.39,3.25,1.39c0.88,0,1.62-0.24,2.23-0.72
		C282.64,39.58,283.1,38.8,283.41,37.73z M283.73,32.04c-0.04-1.63-0.46-2.87-1.26-3.72c-0.8-0.85-1.78-1.27-2.93-1.27
		c-1.23,0-2.25,0.45-3.05,1.34s-1.2,2.11-1.18,3.65H283.73z"/>
	<path class="st0" d="M310.82,44.51h-5.63V33.64c0-2.3-0.12-3.79-0.36-4.46c-0.24-0.67-0.63-1.2-1.17-1.57
		c-0.54-0.37-1.19-0.56-1.96-0.56c-0.98,0-1.85,0.27-2.63,0.8c-0.78,0.53-1.31,1.24-1.59,2.12c-0.29,0.88-0.43,2.51-0.43,4.89v9.65
		h-5.63v-21.3h5.23v3.13c1.86-2.41,4.2-3.61,7.02-3.61c1.24,0,2.38,0.22,3.41,0.67c1.03,0.45,1.81,1.02,2.34,1.71s0.9,1.48,1.1,2.37
		c0.21,0.88,0.31,2.15,0.31,3.79V44.51z"/>
	<path class="st0" d="M324.29,23.21v4.49h-3.85v8.58c0,1.74,0.04,2.75,0.11,3.04c0.07,0.29,0.24,0.52,0.5,0.71s0.58,0.28,0.95,0.28
		c0.52,0,1.28-0.18,2.27-0.54l0.48,4.37c-1.31,0.56-2.79,0.84-4.45,0.84c-1.02,0-1.93-0.17-2.75-0.51s-1.41-0.78-1.79-1.32
		s-0.64-1.27-0.79-2.2c-0.12-0.66-0.18-1.98-0.18-3.97v-9.28h-2.59v-4.49h2.59v-4.23l5.66-3.29v7.52H324.29z"/>
	<path class="st0" d="M339.5,37.73l5.61,0.94c-0.72,2.06-1.86,3.63-3.42,4.7s-3.51,1.61-5.85,1.61c-3.7,0-6.44-1.21-8.22-3.63
		c-1.4-1.94-2.11-4.38-2.11-7.34c0-3.53,0.92-6.29,2.77-8.29c1.84-2,4.18-3,7-3c3.17,0,5.67,1.05,7.5,3.14
		c1.83,2.09,2.71,5.3,2.63,9.62H331.3c0.04,1.67,0.5,2.97,1.36,3.9c0.87,0.93,1.95,1.39,3.25,1.39c0.88,0,1.62-0.24,2.23-0.72
		C338.74,39.58,339.2,38.8,339.5,37.73z M339.82,32.04c-0.04-1.63-0.46-2.87-1.26-3.72c-0.8-0.85-1.78-1.27-2.93-1.27
		c-1.23,0-2.25,0.45-3.05,1.34c-0.8,0.9-1.2,2.11-1.18,3.65H339.82z"/>
	<path class="st0" d="M353.15,44.51h-5.63v-21.3h5.23v3.03c0.9-1.43,1.7-2.37,2.42-2.83c0.71-0.46,1.53-0.68,2.44-0.68
		c1.28,0,2.52,0.35,3.71,1.06l-1.74,4.91c-0.95-0.62-1.83-0.92-2.65-0.92c-0.79,0-1.46,0.22-2,0.65c-0.55,0.43-0.98,1.22-1.29,2.36
		c-0.31,1.14-0.47,3.52-0.47,7.14V44.51z"/>
	<path class="st0" d="M370.3,20.33v-5.21h5.63v5.21H370.3z M370.3,44.51v-21.3h5.63v21.3H370.3z"/>
	<path class="st0" d="M377.5,38.43l5.65-0.86c0.24,1.1,0.73,1.93,1.46,2.5s1.76,0.85,3.09,0.85c1.46,0,2.55-0.27,3.29-0.8
		c0.49-0.37,0.74-0.88,0.74-1.5c0-0.43-0.13-0.78-0.4-1.06c-0.28-0.27-0.91-0.51-1.88-0.74c-4.55-1-7.43-1.92-8.64-2.75
		c-1.68-1.15-2.53-2.75-2.53-4.79c0-1.85,0.73-3.4,2.19-4.65c1.46-1.26,3.72-1.88,6.78-1.88c2.91,0,5.08,0.47,6.5,1.42
		c1.42,0.95,2.39,2.35,2.93,4.21l-5.31,0.98c-0.23-0.83-0.66-1.46-1.29-1.91s-1.54-0.66-2.72-0.66c-1.48,0-2.55,0.21-3.19,0.62
		c-0.43,0.29-0.64,0.67-0.64,1.14c0,0.4,0.19,0.74,0.56,1.02c0.51,0.37,2.26,0.9,5.26,1.58c3,0.68,5.1,1.52,6.29,2.51
		c1.18,1,1.76,2.4,1.76,4.19c0,1.95-0.82,3.63-2.45,5.03c-1.63,1.4-4.04,2.11-7.24,2.11c-2.9,0-5.2-0.59-6.89-1.76
		C379.13,42.05,378.03,40.45,377.5,38.43z"/>
</g>
<g>
	<path class="st0" d="M118.11,77.49l6.05-0.59c0.36,2.03,1.1,3.52,2.21,4.47c1.11,0.95,2.61,1.43,4.5,1.43c2,0,3.51-0.42,4.52-1.27
		c1.02-0.85,1.52-1.84,1.52-2.97c0-0.73-0.21-1.35-0.64-1.86c-0.43-0.51-1.17-0.96-2.24-1.33c-0.73-0.25-2.39-0.7-4.98-1.34
		c-3.33-0.83-5.67-1.84-7.01-3.04c-1.89-1.69-2.83-3.76-2.83-6.19c0-1.57,0.44-3.03,1.33-4.4c0.89-1.37,2.17-2.4,3.84-3.12
		c1.67-0.71,3.69-1.07,6.06-1.07c3.86,0,6.77,0.85,8.72,2.54c1.95,1.69,2.98,3.95,3.08,6.78l-6.21,0.27
		c-0.27-1.58-0.84-2.72-1.71-3.41c-0.88-0.69-2.19-1.04-3.94-1.04c-1.81,0-3.22,0.37-4.24,1.11c-0.66,0.48-0.99,1.11-0.99,1.91
		c0,0.73,0.31,1.35,0.92,1.87c0.78,0.66,2.69,1.34,5.71,2.06c3.02,0.71,5.26,1.45,6.71,2.21c1.45,0.76,2.58,1.81,3.4,3.13
		c0.82,1.32,1.23,2.96,1.23,4.9c0,1.76-0.49,3.42-1.47,4.96c-0.98,1.54-2.37,2.68-4.16,3.43c-1.79,0.75-4.02,1.12-6.7,1.12
		c-3.89,0-6.88-0.9-8.97-2.7C119.76,83.56,118.51,80.94,118.11,77.49z"/>
	<path class="st0" d="M151.45,56.73v11.32c1.9-2.23,4.18-3.34,6.82-3.34c1.36,0,2.58,0.25,3.67,0.76s1.91,1.15,2.47,1.93
		c0.55,0.78,0.93,1.65,1.13,2.6c0.2,0.95,0.3,2.43,0.3,4.43v13.08h-5.9V75.73c0-2.34-0.11-3.82-0.34-4.45
		c-0.22-0.63-0.62-1.13-1.19-1.5c-0.57-0.37-1.28-0.56-2.13-0.56c-0.98,0-1.85,0.24-2.62,0.71c-0.77,0.48-1.33,1.19-1.69,2.15
		c-0.36,0.96-0.54,2.38-0.54,4.25v11.17h-5.9V56.73H151.45z"/>
	<path class="st0" d="M168.82,62.19v-5.46h5.9v5.46H168.82z M168.82,87.51v-22.3h5.9v22.3H168.82z"/>
	<path class="st0" d="M178.07,65.21h5.5v3.28c0.71-1.12,1.68-2.03,2.9-2.73s2.57-1.05,4.05-1.05c2.59,0,4.79,1.01,6.59,3.04
		c1.81,2.03,2.71,4.86,2.71,8.48c0,3.72-0.91,6.62-2.73,8.68c-1.82,2.06-4.02,3.1-6.61,3.1c-1.23,0-2.35-0.25-3.35-0.73
		c-1-0.49-2.05-1.33-3.16-2.52v11.23h-5.9V65.21z M183.9,75.98c0,2.51,0.5,4.36,1.49,5.55c0.99,1.2,2.2,1.8,3.63,1.8
		c1.37,0,2.51-0.55,3.42-1.65c0.91-1.1,1.36-2.9,1.36-5.41c0-2.34-0.47-4.07-1.41-5.21c-0.94-1.13-2.1-1.7-3.49-1.7
		c-1.44,0-2.64,0.56-3.59,1.67C184.38,72.15,183.9,73.8,183.9,75.98z"/>
	<path class="st0" d="M202.23,65.21h5.5v3.28c0.71-1.12,1.68-2.03,2.9-2.73s2.57-1.05,4.05-1.05c2.59,0,4.79,1.01,6.59,3.04
		c1.81,2.03,2.71,4.86,2.71,8.48c0,3.72-0.91,6.62-2.73,8.68c-1.82,2.06-4.02,3.1-6.61,3.1c-1.23,0-2.35-0.25-3.35-0.73
		c-1-0.49-2.05-1.33-3.16-2.52v11.23h-5.9V65.21z M208.06,75.98c0,2.51,0.5,4.36,1.49,5.55c0.99,1.2,2.2,1.8,3.63,1.8
		c1.37,0,2.51-0.55,3.42-1.65c0.91-1.1,1.36-2.9,1.36-5.41c0-2.34-0.47-4.07-1.41-5.21c-0.94-1.13-2.1-1.7-3.49-1.7
		c-1.44,0-2.64,0.56-3.59,1.67C208.54,72.15,208.06,73.8,208.06,75.98z"/>
	<path class="st0" d="M226.55,62.19v-5.46h5.9v5.46H226.55z M226.55,87.51v-22.3h5.9v22.3H226.55z"/>
	<path class="st0" d="M255.99,87.51h-5.9V76.13c0-2.41-0.13-3.96-0.38-4.67c-0.25-0.71-0.66-1.26-1.23-1.65
		c-0.57-0.39-1.25-0.59-2.05-0.59c-1.02,0-1.94,0.28-2.75,0.84c-0.81,0.56-1.37,1.3-1.67,2.22c-0.3,0.92-0.45,2.63-0.45,5.12v10.1
		h-5.9v-22.3h5.48v3.28c1.95-2.52,4.4-3.78,7.35-3.78c1.3,0,2.49,0.23,3.57,0.7c1.08,0.47,1.89,1.07,2.45,1.8
		c0.55,0.73,0.94,1.55,1.15,2.48c0.22,0.92,0.33,2.25,0.33,3.97V87.51z"/>
	<path class="st0" d="M259.32,88.98l6.74,0.82c0.11,0.78,0.37,1.32,0.78,1.62c0.56,0.42,1.44,0.63,2.65,0.63
		c1.54,0,2.69-0.23,3.46-0.69c0.52-0.31,0.91-0.8,1.18-1.49c0.18-0.49,0.27-1.39,0.27-2.71V83.9c-1.76,2.41-3.99,3.61-6.68,3.61
		c-3,0-5.37-1.27-7.12-3.8c-1.37-2-2.06-4.49-2.06-7.47c0-3.74,0.9-6.59,2.7-8.57c1.8-1.97,4.03-2.96,6.71-2.96
		c2.76,0,5.03,1.21,6.82,3.63v-3.13h5.52v20.01c0,2.63-0.22,4.6-0.65,5.9c-0.43,1.3-1.04,2.32-1.83,3.07
		c-0.78,0.74-1.83,1.32-3.14,1.74c-1.31,0.42-2.96,0.63-4.97,0.63c-3.78,0-6.46-0.65-8.04-1.94c-1.58-1.29-2.37-2.94-2.37-4.92
		C259.3,89.5,259.3,89.26,259.32,88.98z M264.59,75.9c0,2.37,0.46,4.1,1.38,5.2c0.92,1.1,2.05,1.65,3.39,1.65
		c1.44,0,2.66-0.56,3.65-1.69c0.99-1.13,1.49-2.8,1.49-5.01c0-2.31-0.48-4.02-1.43-5.14c-0.95-1.12-2.16-1.68-3.61-1.68
		c-1.41,0-2.58,0.55-3.5,1.65C265.05,71.97,264.59,73.64,264.59,75.9z"/>
	<path class="st0" d="M293.93,87.51V56.73h6.21v12.11h12.18V56.73h6.21v30.78h-6.21V74.05h-12.18v13.46H293.93z"/>
	<path class="st0" d="M327,72.01l-5.35-0.97c0.6-2.16,1.64-3.75,3.11-4.79s3.65-1.55,6.55-1.55c2.63,0,4.59,0.31,5.88,0.93
		s2.19,1.41,2.72,2.37c0.53,0.96,0.79,2.72,0.79,5.28l-0.06,6.89c0,1.96,0.09,3.41,0.28,4.34c0.19,0.93,0.54,1.93,1.06,2.99h-5.84
		c-0.15-0.39-0.34-0.97-0.57-1.74c-0.1-0.35-0.17-0.58-0.21-0.69c-1.01,0.98-2.08,1.71-3.23,2.21c-1.15,0.49-2.37,0.73-3.67,0.73
		c-2.3,0-4.1-0.62-5.43-1.87c-1.32-1.25-1.98-2.82-1.98-4.72c0-1.26,0.3-2.38,0.9-3.37c0.6-0.99,1.45-1.74,2.53-2.27
		c1.08-0.52,2.65-0.98,4.69-1.38c2.76-0.52,4.67-1,5.73-1.45v-0.59c0-1.13-0.28-1.94-0.84-2.42c-0.56-0.48-1.62-0.72-3.17-0.72
		c-1.05,0-1.87,0.21-2.46,0.62S327.37,70.98,327,72.01z M334.9,76.8c-0.76,0.25-1.95,0.55-3.59,0.9c-1.64,0.35-2.71,0.69-3.21,1.03
		c-0.77,0.55-1.16,1.24-1.16,2.08c0,0.83,0.31,1.54,0.92,2.14c0.62,0.6,1.4,0.9,2.35,0.9c1.06,0,2.08-0.35,3.04-1.05
		c0.71-0.53,1.18-1.18,1.41-1.95c0.15-0.5,0.23-1.46,0.23-2.88V76.8z"/>
	<path class="st0" d="M364.64,87.51h-5.9V76.13c0-2.41-0.13-3.96-0.38-4.67c-0.25-0.71-0.66-1.26-1.23-1.65
		c-0.57-0.39-1.25-0.59-2.05-0.59c-1.02,0-1.94,0.28-2.75,0.84c-0.81,0.56-1.37,1.3-1.67,2.22s-0.45,2.63-0.45,5.12v10.1h-5.9v-22.3
		h5.48v3.28c1.95-2.52,4.4-3.78,7.35-3.78c1.3,0,2.49,0.23,3.57,0.7c1.08,0.47,1.89,1.07,2.45,1.8c0.55,0.73,0.94,1.55,1.15,2.48
		s0.33,2.25,0.33,3.97V87.51z"/>
	<path class="st0" d="M388.54,87.51h-5.48v-3.28c-0.91,1.27-1.98,2.22-3.22,2.84c-1.24,0.62-2.49,0.93-3.75,0.93
		c-2.56,0-4.76-1.03-6.58-3.1c-1.83-2.06-2.74-4.94-2.74-8.64c0-3.78,0.89-6.65,2.67-8.62c1.78-1.97,4.02-2.95,6.74-2.95
		c2.49,0,4.65,1.04,6.47,3.11V56.73h5.9V87.51z M372.79,75.88c0,2.38,0.33,4.1,0.99,5.17c0.95,1.54,2.28,2.31,3.99,2.31
		c1.36,0,2.51-0.58,3.46-1.73c0.95-1.15,1.43-2.88,1.43-5.17c0-2.56-0.46-4.41-1.39-5.53c-0.92-1.13-2.11-1.69-3.55-1.69
		c-1.4,0-2.57,0.56-3.52,1.67C373.26,72,372.79,73.67,372.79,75.88z"/>
	<path class="st0" d="M391.56,87.51V56.73h5.9v30.78H391.56z"/>
	<path class="st0" d="M414.53,80.41l5.88,0.99c-0.76,2.16-1.95,3.8-3.58,4.92c-1.63,1.13-3.67,1.69-6.12,1.69
		c-3.88,0-6.75-1.27-8.61-3.8c-1.47-2.03-2.2-4.59-2.2-7.68c0-3.7,0.96-6.59,2.9-8.68c1.93-2.09,4.38-3.14,7.33-3.14
		c3.32,0,5.93,1.1,7.85,3.29s2.83,5.55,2.75,10.07h-14.78c0.04,1.75,0.52,3.11,1.43,4.08c0.91,0.97,2.04,1.46,3.4,1.46
		c0.92,0,1.7-0.25,2.33-0.76S414.2,81.53,414.53,80.41z M414.86,74.45c-0.04-1.71-0.48-3.01-1.32-3.89s-1.86-1.33-3.06-1.33
		c-1.29,0-2.35,0.47-3.19,1.41s-1.25,2.21-1.24,3.82H414.86z"/>
	<path class="st0" d="M444.26,87.51h-5.48v-3.28c-0.91,1.27-1.98,2.22-3.22,2.84c-1.24,0.62-2.49,0.93-3.75,0.93
		c-2.56,0-4.76-1.03-6.58-3.1c-1.83-2.06-2.74-4.94-2.74-8.64c0-3.78,0.89-6.65,2.67-8.62c1.78-1.97,4.02-2.95,6.74-2.95
		c2.49,0,4.65,1.04,6.47,3.11V56.73h5.9V87.51z M428.51,75.88c0,2.38,0.33,4.1,0.99,5.17c0.95,1.54,2.28,2.31,3.99,2.31
		c1.36,0,2.51-0.58,3.46-1.73c0.95-1.15,1.43-2.88,1.43-5.17c0-2.56-0.46-4.41-1.39-5.53c-0.92-1.13-2.11-1.69-3.55-1.69
		c-1.4,0-2.57,0.56-3.52,1.67C428.98,72,428.51,73.67,428.51,75.88z"/>
	<path class="st0" d="M447.11,87.51v-5.9h5.9v5.9H447.11z"/>
</g>
<g>
	<path class="st0" d="M127.33,118.01h-6.57l-1.26,3.96h-1.37l5.29-15.75h1.26l5.29,15.75h-1.37L127.33,118.01z M126.99,116.95
		l-2.95-9.22l-2.95,9.22H126.99z"/>
	<path class="st0" d="M131.89,113.47c0-1.35-0.03-2.26-0.09-2.75h1.08c0.08,0.81,0.1,1.57,0.07,2.27h0.09
		c0.36-0.76,0.89-1.37,1.6-1.82s1.48-0.67,2.32-0.67c2.64,0,3.96,1.7,3.96,5.08v6.39h-1.22v-6.41c0-1.37-0.23-2.38-0.7-3.05
		c-0.47-0.67-1.17-1-2.12-1c-0.72,0-1.37,0.19-1.95,0.56c-0.58,0.38-1.03,0.89-1.36,1.55c-0.33,0.66-0.5,1.4-0.5,2.21v6.14h-1.19
		V113.47z"/>
	<path class="st0" d="M158.33,116.84h-8.28c0.07,1.37,0.44,2.42,1.09,3.17c0.65,0.75,1.55,1.12,2.69,1.12c0.69,0,1.32-0.15,1.9-0.45
		c0.58-0.3,1.03-0.72,1.36-1.26l0.74,0.74c-0.45,0.66-1.02,1.16-1.7,1.51c-0.68,0.35-1.45,0.52-2.31,0.52
		c-1.56,0-2.79-0.52-3.68-1.55c-0.89-1.04-1.34-2.46-1.34-4.28c0-1.83,0.44-3.27,1.31-4.31c0.87-1.04,2.06-1.56,3.58-1.56
		c1.44,0,2.57,0.49,3.4,1.48c0.82,0.99,1.24,2.36,1.24,4.12V116.84z M157.16,115.67c0-1.26-0.31-2.26-0.94-3.02
		c-0.63-0.75-1.47-1.12-2.52-1.12c-1.11,0-1.98,0.38-2.61,1.12c-0.63,0.75-0.98,1.82-1.03,3.22h7.11V115.67z"/>
	<path class="st0" d="M161.28,121.26c-0.69-0.62-1.04-1.44-1.04-2.44c0-1.11,0.4-1.97,1.2-2.59c0.8-0.62,1.93-0.92,3.39-0.92h2.75
		v-0.67c0-1-0.26-1.77-0.78-2.31c-0.52-0.53-1.26-0.8-2.24-0.8c-0.66,0-1.27,0.16-1.82,0.47c-0.56,0.32-1.01,0.76-1.35,1.33
		l-0.72-0.79c0.42-0.66,0.97-1.17,1.65-1.52s1.46-0.53,2.33-0.53c1.29,0,2.3,0.35,3.03,1.05s1.09,1.66,1.09,2.89v5.49
		c0,0.53,0.09,1.21,0.27,2.05h-1.03c-0.14-0.33-0.23-0.92-0.29-1.75h-0.04c-0.44,0.63-0.97,1.12-1.6,1.46
		c-0.63,0.35-1.33,0.52-2.09,0.52C162.87,122.2,161.97,121.88,161.28,121.26z M165.76,120.79c0.55-0.26,1-0.61,1.33-1.06
		s0.5-0.91,0.5-1.41v-2.05h-2.81c-1.05,0-1.87,0.22-2.46,0.67c-0.59,0.45-0.89,1.07-0.89,1.87c0,0.69,0.24,1.26,0.72,1.7
		c0.48,0.44,1.09,0.66,1.84,0.66C164.61,121.18,165.2,121.05,165.76,120.79z"/>
	<path class="st0" d="M172.69,121.72c-0.63-0.32-1.08-0.73-1.35-1.24l0.83-0.58c0.25,0.42,0.61,0.74,1.07,0.97s0.99,0.34,1.59,0.34
		c0.73,0,1.33-0.22,1.8-0.65c0.46-0.43,0.7-0.99,0.7-1.66c0-0.54-0.19-1-0.56-1.37c-0.38-0.38-1.01-0.73-1.91-1.08
		c-1.23-0.46-2.09-0.94-2.58-1.43c-0.49-0.49-0.73-1.08-0.73-1.79c0-0.82,0.31-1.48,0.94-1.98c0.63-0.5,1.46-0.74,2.5-0.74
		c0.68,0,1.3,0.16,1.87,0.47c0.57,0.32,0.99,0.74,1.26,1.26l-0.81,0.56c-0.52-0.87-1.3-1.31-2.32-1.31c-0.66,0-1.2,0.16-1.62,0.47
		c-0.42,0.32-0.63,0.72-0.63,1.21c0,0.47,0.2,0.86,0.6,1.19c0.4,0.33,1.13,0.71,2.19,1.12c1.08,0.42,1.85,0.89,2.32,1.42
		c0.46,0.53,0.7,1.19,0.7,1.98c0,1-0.35,1.81-1.04,2.41s-1.6,0.9-2.75,0.9C174.01,122.2,173.32,122.04,172.69,121.72z"/>
	<path class="st0" d="M181.07,108.01c-0.19-0.19-0.28-0.44-0.28-0.75c0-0.3,0.09-0.55,0.28-0.74c0.19-0.2,0.43-0.29,0.73-0.29
		c0.31,0,0.57,0.1,0.75,0.29c0.19,0.19,0.28,0.44,0.28,0.74c0,0.31-0.09,0.57-0.28,0.75c-0.19,0.19-0.44,0.28-0.75,0.28
		C181.5,108.29,181.25,108.2,181.07,108.01z M181.21,110.72h1.19v11.25h-1.19V110.72z"/>
	<path class="st0" d="M194.58,116.84h-8.28c0.07,1.37,0.44,2.42,1.09,3.17c0.65,0.75,1.55,1.12,2.69,1.12c0.69,0,1.32-0.15,1.9-0.45
		c0.58-0.3,1.03-0.72,1.36-1.26l0.74,0.74c-0.45,0.66-1.02,1.16-1.7,1.51c-0.68,0.35-1.45,0.52-2.31,0.52
		c-1.56,0-2.79-0.52-3.68-1.55c-0.89-1.04-1.34-2.46-1.34-4.28c0-1.83,0.44-3.27,1.31-4.31c0.87-1.04,2.06-1.56,3.58-1.56
		c1.44,0,2.57,0.49,3.4,1.48c0.82,0.99,1.24,2.36,1.24,4.12V116.84z M193.41,115.67c0-1.26-0.31-2.26-0.94-3.02
		c-0.63-0.75-1.47-1.12-2.52-1.12c-1.11,0-1.98,0.38-2.61,1.12c-0.63,0.75-0.98,1.82-1.03,3.22h7.11V115.67z"/>
	<path class="st0" d="M197.01,113.47c0-1.27-0.02-2.19-0.07-2.75h1.08c0.06,0.55,0.09,1.21,0.09,1.98v0.34h0.07
		c0.3-0.82,0.73-1.46,1.31-1.89c0.57-0.44,1.24-0.65,2.02-0.65c0.19,0,0.4,0.02,0.61,0.07v1.06c-0.15-0.04-0.38-0.07-0.67-0.07
		c-0.6,0-1.15,0.19-1.64,0.56c-0.5,0.38-0.88,0.9-1.16,1.56c-0.28,0.67-0.42,1.41-0.42,2.22v6.08h-1.21V113.47z"/>
	<path class="st0" d="M203.76,120.15c0.24,0.3,0.36,0.71,0.36,1.21c0,0.69-0.18,1.44-0.55,2.24c-0.37,0.8-0.84,1.47-1.43,2.01
		l-0.47-0.54c0.34-0.39,0.64-0.86,0.89-1.4s0.41-1.07,0.48-1.58l-0.34,0.02c-0.32,0-0.57-0.11-0.78-0.33c-0.2-0.22-0.3-0.5-0.3-0.84
		c0-0.38,0.11-0.68,0.34-0.91s0.52-0.35,0.88-0.35C203.21,119.7,203.52,119.85,203.76,120.15z"/>
	<path class="st0" d="M214.94,121.58c-0.69-0.41-1.19-0.94-1.51-1.59h-0.05c0.02,0.66,0,1.32-0.04,1.98h-1.08
		c0.05-0.57,0.07-1.49,0.07-2.75v-13.95h1.21v7.2h0.04c0.38-0.64,0.86-1.14,1.46-1.47s1.28-0.51,2.05-0.51
		c1.45,0,2.61,0.51,3.45,1.52c0.85,1.01,1.27,2.39,1.27,4.13c0,1.21-0.19,2.28-0.57,3.19c-0.38,0.92-0.93,1.62-1.64,2.12
		c-0.71,0.5-1.54,0.74-2.49,0.74C216.36,122.2,215.63,121.99,214.94,121.58z M219.65,119.82c0.65-0.91,0.98-2.12,0.98-3.63
		c0-1.44-0.32-2.58-0.97-3.43c-0.65-0.85-1.52-1.27-2.61-1.27c-1.06,0-1.92,0.38-2.55,1.12c-0.64,0.75-0.96,1.75-0.96,2.99v1.87
		c0,1.14,0.32,2.04,0.96,2.71c0.64,0.67,1.49,1,2.55,1C218.13,121.18,219,120.73,219.65,119.82z"/>
	<path class="st0" d="M233.16,116.84h-8.28c0.07,1.37,0.44,2.42,1.09,3.17c0.65,0.75,1.55,1.12,2.69,1.12c0.69,0,1.32-0.15,1.9-0.45
		c0.58-0.3,1.03-0.72,1.36-1.26l0.74,0.74c-0.45,0.66-1.02,1.16-1.7,1.51c-0.68,0.35-1.45,0.52-2.31,0.52
		c-1.56,0-2.79-0.52-3.68-1.55c-0.89-1.04-1.34-2.46-1.34-4.28c0-1.83,0.44-3.27,1.31-4.31c0.87-1.04,2.06-1.56,3.58-1.56
		c1.44,0,2.57,0.49,3.4,1.48c0.82,0.99,1.24,2.36,1.24,4.12V116.84z M231.99,115.67c0-1.26-0.31-2.26-0.94-3.02
		c-0.63-0.75-1.47-1.12-2.52-1.12c-1.11,0-1.98,0.38-2.61,1.12c-0.63,0.75-0.98,1.82-1.03,3.22h7.11V115.67z"/>
	<path class="st0" d="M236.92,121.33c-0.48-0.58-0.72-1.41-0.72-2.51v-7.09h-2.02v-1.01h2.02v-3.06l1.12-0.38h0.09v3.44h3.17v1.01
		h-3.17v6.84c0,0.9,0.14,1.55,0.43,1.96c0.28,0.41,0.73,0.61,1.35,0.61c0.61,0,1.1-0.09,1.46-0.27l0.13,0.97
		c-0.48,0.24-1.06,0.36-1.75,0.36C238.11,122.2,237.4,121.91,236.92,121.33z"/>
	<path class="st0" d="M244.68,121.33c-0.48-0.58-0.72-1.41-0.72-2.51v-7.09h-2.02v-1.01h2.02v-3.06l1.12-0.38h0.09v3.44h3.17v1.01
		h-3.17v6.84c0,0.9,0.14,1.55,0.43,1.96c0.28,0.41,0.73,0.61,1.35,0.61c0.61,0,1.1-0.09,1.46-0.27l0.13,0.97
		c-0.48,0.24-1.06,0.36-1.75,0.36C245.87,122.2,245.16,121.91,244.68,121.33z"/>
	<path class="st0" d="M259.69,116.84h-8.28c0.07,1.37,0.44,2.42,1.09,3.17c0.65,0.75,1.55,1.12,2.69,1.12c0.69,0,1.32-0.15,1.9-0.45
		c0.58-0.3,1.03-0.72,1.36-1.26l0.74,0.74c-0.45,0.66-1.02,1.16-1.7,1.51c-0.68,0.35-1.45,0.52-2.31,0.52
		c-1.56,0-2.79-0.52-3.68-1.55c-0.89-1.04-1.34-2.46-1.34-4.28c0-1.83,0.44-3.27,1.31-4.31c0.87-1.04,2.06-1.56,3.58-1.56
		c1.44,0,2.57,0.49,3.4,1.48c0.82,0.99,1.24,2.36,1.24,4.12V116.84z M258.52,115.67c0-1.26-0.31-2.26-0.94-3.02
		c-0.63-0.75-1.47-1.12-2.52-1.12c-1.11,0-1.98,0.38-2.61,1.12c-0.63,0.75-0.98,1.82-1.03,3.22h7.11V115.67z"/>
	<path class="st0" d="M262.23,113.47c0-1.27-0.02-2.19-0.07-2.75h1.08c0.06,0.55,0.09,1.21,0.09,1.98v0.34h0.07
		c0.3-0.82,0.73-1.46,1.31-1.89c0.57-0.44,1.24-0.65,2.02-0.65c0.19,0,0.4,0.02,0.61,0.07v1.06c-0.15-0.04-0.38-0.07-0.67-0.07
		c-0.6,0-1.15,0.19-1.64,0.56c-0.5,0.38-0.88,0.9-1.16,1.56c-0.28,0.67-0.42,1.41-0.42,2.22v6.08h-1.21V113.47z"/>
	<path class="st0" d="M287.28,110.72l-2.77,11.25h-1.17l-3.06-9.97l-3.04,9.97h-1.17l-2.79-11.25h1.33l2.09,9.81l2.99-9.81h1.19
		l2.99,9.76l2.09-9.76H287.28z"/>
	<path class="st0" d="M289.57,121.26c-0.69-0.62-1.04-1.44-1.04-2.44c0-1.11,0.4-1.97,1.2-2.59c0.8-0.62,1.93-0.92,3.39-0.92h2.75
		v-0.67c0-1-0.26-1.77-0.78-2.31c-0.52-0.53-1.26-0.8-2.24-0.8c-0.66,0-1.27,0.16-1.82,0.47c-0.56,0.32-1.01,0.76-1.35,1.33
		l-0.72-0.79c0.42-0.66,0.97-1.17,1.65-1.52s1.46-0.53,2.33-0.53c1.29,0,2.3,0.35,3.03,1.05c0.73,0.7,1.09,1.66,1.09,2.89v5.49
		c0,0.53,0.09,1.21,0.27,2.05h-1.04c-0.13-0.33-0.23-0.92-0.29-1.75h-0.04c-0.43,0.63-0.97,1.12-1.6,1.46
		c-0.63,0.35-1.33,0.52-2.09,0.52C291.16,122.2,290.26,121.88,289.57,121.26z M294.05,120.79c0.55-0.26,1-0.61,1.33-1.06
		s0.5-0.91,0.5-1.41v-2.05h-2.81c-1.05,0-1.87,0.22-2.46,0.67s-0.89,1.07-0.89,1.87c0,0.69,0.24,1.26,0.72,1.7
		c0.48,0.44,1.09,0.66,1.84,0.66C292.9,121.18,293.49,121.05,294.05,120.79z"/>
	<path class="st0" d="M307.8,110.72l-3.94,11.23c-0.57,1.65-1.23,2.85-1.98,3.6s-1.65,1.12-2.7,1.12c-0.35,0-0.65-0.02-0.92-0.07
		v-0.88c0.15,0.03,0.41,0.04,0.79,0.04c0.55,0,1.04-0.13,1.46-0.39c0.42-0.26,0.81-0.69,1.18-1.29c0.37-0.6,0.75-1.43,1.16-2.5
		l-4.18-10.87h1.37l3.38,9.54l2.99-9.54H307.8z"/>
	<path class="st0" d="M316.41,121.33c-0.48-0.58-0.72-1.41-0.72-2.51v-7.09h-2.03v-1.01h2.03v-3.06l1.12-0.38h0.09v3.44h3.17v1.01
		h-3.17v6.84c0,0.9,0.14,1.55,0.43,1.96c0.28,0.41,0.73,0.61,1.35,0.61s1.1-0.09,1.46-0.27l0.13,0.97
		c-0.48,0.24-1.07,0.36-1.75,0.36C317.6,122.2,316.89,121.91,316.41,121.33z"/>
	<path class="st0" d="M323.89,121.48c-0.79-0.48-1.39-1.16-1.82-2.05c-0.43-0.88-0.64-1.91-0.64-3.08s0.21-2.2,0.64-3.08
		c0.43-0.89,1.04-1.57,1.82-2.05c0.79-0.48,1.7-0.72,2.73-0.72s1.95,0.24,2.73,0.72c0.79,0.48,1.4,1.16,1.83,2.05
		c0.43,0.88,0.65,1.91,0.65,3.08s-0.22,2.2-0.65,3.08c-0.44,0.89-1.05,1.57-1.83,2.05c-0.79,0.48-1.7,0.72-2.73,0.72
		S324.68,121.96,323.89,121.48z M328.73,120.6c0.61-0.41,1.08-0.98,1.41-1.71c0.33-0.74,0.5-1.58,0.5-2.54s-0.17-1.81-0.5-2.54
		c-0.33-0.73-0.8-1.3-1.41-1.71c-0.61-0.4-1.31-0.61-2.1-0.61c-0.78,0-1.47,0.2-2.08,0.61c-0.61,0.41-1.08,0.98-1.41,1.71
		c-0.33,0.74-0.5,1.58-0.5,2.54s0.17,1.81,0.5,2.54c0.33,0.73,0.8,1.3,1.41,1.71c0.61,0.4,1.3,0.61,2.08,0.61
		C327.42,121.21,328.12,121,328.73,120.6z"/>
	<path class="st0" d="M340.44,121.72c-0.63-0.32-1.08-0.73-1.35-1.24l0.83-0.58c0.25,0.42,0.61,0.74,1.07,0.97
		c0.46,0.22,0.99,0.34,1.59,0.34c0.73,0,1.33-0.22,1.8-0.65c0.46-0.43,0.7-0.99,0.7-1.66c0-0.54-0.19-1-0.56-1.37
		s-1.01-0.73-1.91-1.08c-1.23-0.46-2.09-0.94-2.58-1.43c-0.49-0.49-0.73-1.08-0.73-1.79c0-0.82,0.32-1.48,0.95-1.98
		s1.46-0.74,2.5-0.74c0.67,0,1.3,0.16,1.87,0.47c0.57,0.32,0.99,0.74,1.26,1.26l-0.81,0.56c-0.53-0.87-1.3-1.31-2.32-1.31
		c-0.66,0-1.2,0.16-1.62,0.47c-0.42,0.32-0.63,0.72-0.63,1.21c0,0.47,0.2,0.86,0.6,1.19c0.4,0.33,1.13,0.71,2.19,1.12
		c1.08,0.42,1.85,0.89,2.32,1.42c0.46,0.53,0.7,1.19,0.7,1.98c0,1-0.34,1.81-1.03,2.41c-0.69,0.6-1.61,0.9-2.75,0.9
		C341.76,122.2,341.07,122.04,340.44,121.72z"/>
	<path class="st0" d="M348.72,105.28h1.21v7.61c0.36-0.74,0.9-1.32,1.61-1.74c0.71-0.43,1.49-0.64,2.33-0.64
		c1.33,0,2.35,0.43,3.05,1.29c0.7,0.86,1.05,2.13,1.05,3.79v6.39h-1.21v-6.41c0-1.32-0.25-2.33-0.74-3.03
		c-0.5-0.7-1.21-1.05-2.16-1.05c-0.74,0-1.4,0.19-1.99,0.57s-1.06,0.9-1.41,1.56c-0.35,0.66-0.52,1.39-0.52,2.18v6.17h-1.21V105.28z
		"/>
	<path class="st0" d="M360.82,108.01c-0.19-0.19-0.28-0.44-0.28-0.75c0-0.3,0.09-0.55,0.28-0.74c0.19-0.2,0.43-0.29,0.73-0.29
		c0.31,0,0.57,0.1,0.75,0.29c0.19,0.19,0.28,0.44,0.28,0.74c0,0.31-0.09,0.57-0.28,0.75s-0.44,0.28-0.75,0.28
		C361.25,108.29,361,108.2,360.82,108.01z M360.96,110.72h1.19v11.25h-1.19V110.72z"/>
	<path class="st0" d="M365.28,113.47c0-1.16-0.02-2.07-0.07-2.75h1.08c0.04,0.54,0.07,1.21,0.07,2.03h0.04
		c0.28-0.65,0.78-1.18,1.47-1.61s1.44-0.64,2.22-0.64c1.46,0,2.6,0.52,3.44,1.55c0.84,1.04,1.26,2.46,1.26,4.28
		c0,1.17-0.2,2.2-0.58,3.08c-0.39,0.89-0.95,1.57-1.67,2.06c-0.72,0.49-1.54,0.73-2.48,0.73c-0.78,0-1.49-0.19-2.14-0.56
		c-0.65-0.37-1.11-0.87-1.4-1.48h-0.04v7.27h-1.21V113.47z M371.88,120.55c0.54-0.4,0.96-0.97,1.26-1.71
		c0.3-0.73,0.45-1.59,0.45-2.56c0-1.49-0.32-2.64-0.96-3.48c-0.64-0.83-1.51-1.25-2.62-1.25c-1.02,0-1.86,0.35-2.52,1.04
		c-0.66,0.69-0.99,1.57-0.99,2.63v1.87c0,1.25,0.32,2.24,0.95,2.97c0.63,0.73,1.48,1.1,2.56,1.1
		C370.71,121.16,371.34,120.96,371.88,120.55z"/>
	<path class="st0" d="M376.63,121.88c-0.2-0.21-0.3-0.49-0.3-0.83c0-0.34,0.1-0.62,0.3-0.83c0.2-0.21,0.47-0.32,0.8-0.32
		s0.6,0.11,0.81,0.33c0.21,0.22,0.31,0.49,0.31,0.82c0,0.33-0.1,0.6-0.31,0.82c-0.21,0.22-0.48,0.33-0.81,0.33
		S376.84,122.09,376.63,121.88z"/>
</g>
<g>
	<defs>
		<rect id="SVGID_1_" x="7.87" y="1.02" width="534.62" height="139.75"/>
	</defs>
	<clipPath id="SVGID_2_">
		<use xlink:href="#SVGID_1_"  style="overflow:visible;"/>
	</clipPath>
	<path class="st1" d="M7.87,56.04c0,16.5,13.42,29.92,29.92,29.92h56.34c3.85,0,6.97-3.12,6.97-6.97c0-3.85-3.12-6.97-6.97-6.97
		H37.79c-8.81,0-15.99-7.17-15.99-15.99c0-8.81,7.17-15.98,15.99-15.98h56.34c3.85,0,6.97-3.12,6.97-6.97s-3.12-6.97-6.97-6.97
		H37.79C21.29,26.12,7.87,39.54,7.87,56.04"/>
	<path class="st2" d="M65.68,54.57c0,1.78,0.68,3.57,2.04,4.93c2.72,2.72,7.13,2.72,9.85,0l21.48-21.48c2.72-2.72,2.72-7.13,0-9.85
		c-2.72-2.72-7.13-2.72-9.85,0L67.72,49.64C66.36,51,65.68,52.78,65.68,54.57"/>
	<path class="st3" d="M72.65,4.63c1.78,0,3.57,0.68,4.93,2.04l21.44,21.44c-0.12-0.11-0.24-0.22-0.36-0.33
		c-0.52-0.45-1.1-0.81-1.7-1.07c-0.86-0.38-1.82-0.6-2.83-0.6H77.31l-9.59-9.59c-1.36-1.36-2.04-3.14-2.04-4.93
		c0-1.78,0.68-3.57,2.04-4.93C69.08,5.31,70.87,4.63,72.65,4.63"/>
	<path class="st4" d="M77.31,26.11h16.82c1,0,1.96,0.21,2.82,0.6c-0.9-0.4-1.86-0.6-2.82-0.6c-1.78,0-3.57,0.68-4.93,2.04
		l-4.93,4.93L77.31,26.11z M98.66,27.78c0.12,0.11,0.24,0.22,0.36,0.33l0.04,0.04c0.12,0.12,0.23,0.24,0.34,0.37
		c-0.11-0.13-0.22-0.25-0.34-0.37C98.93,28.03,98.8,27.9,98.66,27.78"/>
	<path class="st5" d="M94.13,26.12c0.96,0,1.93,0.2,2.82,0.6c0.6,0.27,1.18,0.63,1.7,1.07c0.14,0.12,0.27,0.24,0.4,0.37
		c0.12,0.12,0.23,0.24,0.34,0.37c1.13,1.31,1.7,2.93,1.7,4.56c0,1.78-0.68,3.57-2.04,4.93c-1.36,1.36-3.14,2.04-4.93,2.04
		c-1.78,0-3.57-0.68-4.93-2.04l-4.93-4.93l4.93-4.93C90.57,26.8,92.35,26.12,94.13,26.12"/>
</g>
</svg>
