<svg xmlns="http://www.w3.org/2000/svg" viewBox="0 0 466.5 473.69"><defs><style>.cls-1{fill:#1d1d1b;}</style></defs><g id="Layer_2" data-name="Layer 2"><g id="_ÎÓÈ_1" data-name="—ÎÓÈ 1"><path class="cls-1" d="M461.14,201.53,305.45,170.42a6.74,6.74,0,0,0-2.61,0L147.16,201.53a6.66,6.66,0,0,0-5.36,6.54v121.8a6.67,6.67,0,0,0,6.67,6.67H459.83a6.67,6.67,0,0,0,6.67-6.67V208.07A6.67,6.67,0,0,0,461.14,201.53Zm-8,121.67H357.38V244.46a6.67,6.67,0,0,0-13.34,0V323.2H264.25V244.46a6.67,6.67,0,0,0-13.34,0V323.2H155.13V213.53l149-29.77,149,29.77Z"/><path class="cls-1" d="M454.69,346.15l-31.07,37.57H184.67L153.6,346.15a6.67,6.67,0,0,0-10.27,8.5l33.07,40a6.66,6.66,0,0,0,5.13,2.42H426.76a6.68,6.68,0,0,0,5.14-2.42l33.07-40a6.67,6.67,0,0,0-10.28-8.5Z"/><path class="cls-1" d="M198.21,233.54a28,28,0,1,0,28,28A28,28,0,0,0,198.21,233.54Zm0,42.69a14.68,14.68,0,1,1,14.68-14.68A14.69,14.69,0,0,1,198.21,276.23Z"/><path class="cls-1" d="M410.07,289.56a28,28,0,1,0-28-28A28,28,0,0,0,410.07,289.56Zm0-42.68a14.68,14.68,0,1,1-14.67,14.67A14.7,14.7,0,0,1,410.07,246.88Z"/><path class="cls-1" d="M257.41,25.1l-96,29.18a6.66,6.66,0,0,0-4.73,6.37V188.16a6.67,6.67,0,1,0,13.33,0V65.6l91.28-27.75a6.66,6.66,0,1,0-3.88-12.75Z"/><path class="cls-1" d="M445,194.83a6.67,6.67,0,0,0,6.66-6.67V60.65a6.67,6.67,0,0,0-4.71-6.37l-94.53-29A6.66,6.66,0,1,0,348.45,38l89.83,27.59V188.16A6.67,6.67,0,0,0,445,194.83Z"/><path class="cls-1" d="M304.15,0a30.27,30.27,0,1,0,30.27,30.27A30.31,30.31,0,0,0,304.15,0Zm0,47.21a16.94,16.94,0,1,1,16.93-16.94A17,17,0,0,1,304.15,47.21Z"/><path class="cls-1" d="M191.3,91.12v50a6.67,6.67,0,0,0,6.66,6.67h88.72a6.67,6.67,0,0,0,6.67-6.67v-50a6.66,6.66,0,0,0-6.67-6.66H198A6.66,6.66,0,0,0,191.3,91.12Zm13.33,6.67H280v36.69H204.63Z"/><path class="cls-1" d="M314.94,91.12v50a6.67,6.67,0,0,0,6.67,6.67h88.72a6.67,6.67,0,0,0,6.67-6.67v-50a6.67,6.67,0,0,0-6.67-6.66H321.61A6.67,6.67,0,0,0,314.94,91.12Zm13.33,6.67h75.39v36.69H328.27Z"/><path class="cls-1" d="M188.15,473.69a6.66,6.66,0,0,0,6.29-4.45l20-56.93a6.67,6.67,0,0,0-12.58-4.43l-20,56.93a6.66,6.66,0,0,0,4.08,8.5A6.59,6.59,0,0,0,188.15,473.69Z"/><path class="cls-1" d="M422.36,473.31a6.67,6.67,0,0,0,4.07-8.5l-20-56.93a6.66,6.66,0,1,0-12.57,4.43l20,56.93a6.67,6.67,0,0,0,8.51,4.07Z"/><path class="cls-1" d="M378.8,431.89H229.49a6.67,6.67,0,1,0,0,13.33H378.8a6.67,6.67,0,1,0,0-13.33Z"/><path class="cls-1" d="M0,386.94a6.67,6.67,0,0,0,6.67,6.66H44.2c66.35,0,82.31,12.34,104.4,29.41l1.49,1.15a6.6,6.6,0,0,0,4.07,1.39,6.67,6.67,0,0,0,4.07-11.95l-1.48-1.14c-23.27-18-41.65-32.19-112.55-32.19H6.67A6.67,6.67,0,0,0,0,386.94Z"/><path class="cls-1" d="M16.67,348.15a6.67,6.67,0,1,0,0,13.33H43.84a6.66,6.66,0,0,0,6.66-6.66V156.75a6.67,6.67,0,0,0-6.66-6.67H16.67a6.67,6.67,0,0,0,0,13.34h20.5V348.15Z"/><path class="cls-1" d="M126.51,99.05a6.67,6.67,0,0,0-9.87-9L69.23,142.27a6.66,6.66,0,0,0-1.73,4.48v211.4A6.67,6.67,0,0,0,73,364.72l43.22,7.45a7.53,7.53,0,0,0,1.14.1A6.67,6.67,0,0,0,118.52,359l-37.69-6.5V149.33Z"/></g></g></svg>