<svg xmlns="http://www.w3.org/2000/svg" viewBox="0 0 472.1 467.25"><defs><style>.cls-1{fill:#1d1d1b;}</style></defs><g id="Layer_2" data-name="Layer 2"><g id="_ÎÓÈ_1" data-name="—ÎÓÈ 1"><path class="cls-1" d="M413.94,269.79a181.57,181.57,0,0,0-14.75-72.06A6.67,6.67,0,1,0,386.94,203a167.9,167.9,0,0,1,12.85,50.1,63.48,63.48,0,0,1-7.16,0c-12.61-.52-29.89-1.2-43.32,31.46-.42,1-1.08,2.26-1.78,3.56-4.38,8.19-11.71,21.9,9.05,39.84,3.07,2.65-.71,14.42-3.47,23-4.26,13.24-9,28.13-2.82,39.2a168.86,168.86,0,0,1-119.1,49.06c-93.4,0-169.39-76-169.39-169.41a169,169,0,0,1,4.73-39.67c15.53-.11,29.44,1.69,30,22.35.53,21.3,13.57,27.36,22.2,31.37,7,3.25,8.66,4.4,8.69,8.16.49,47.21,34,50.47,54.06,52.41,5.68.55,11,1.07,13.62,2.33,4,2,4.39,3.52,5.34,9.82,1.08,7.14,2.56,16.92,13,28.67,18.21,20.43,37,28.89,49.68,28.89a23.43,23.43,0,0,0,5.19-.54c5.45-1.24,9.34-4.63,10.68-9.28,1.23-4.27.81-11.24-8.17-20.2-13.56-13.55-10.59-33.49-5.27-43.58.9-1.72,1.92-3.56,3-5.51,10.38-18.76,27.76-50.15,4.82-83.67-6.62-9.67-20.4-10.13-35-10.62-14.06-.47-28.6-.95-35.13-9.28-3.92-5-8.42-6.4-11.51-6.68-9.69-.89-18.9,7.22-28.67,15.8-12.5,11-21.91,18.44-29,14.11-7.86-4.82-4.23-15.45,3.64-29.93l1.25-2.32c3.47-6.59,18.46-9.81,30.51-12.39,15.28-3.27,29.71-6.37,34.21-16.74,2.38-5.47,1.45-11.81-2.77-18.83-3.75-6.26-5.36-13.46-7.06-21.08-3.26-14.61-6.94-30.81-26.79-40.36a168.26,168.26,0,0,1,64.1-12.64,171,171,0,0,1,32.12,3,6.67,6.67,0,1,0,2.52-13.09,184.4,184.4,0,0,0-34.64-3.27c-100.75,0-182.73,82-182.73,182.74s82,182.74,182.73,182.74S413.94,370.55,413.94,269.79Zm-54.65,24.59c.82-1.54,1.67-3.13,2.35-4.78,9.89-24,19-23.67,30.46-23.21a74.08,74.08,0,0,0,8.43,0c0,1.13.08,2.26.08,3.4a168.59,168.59,0,0,1-39.94,109.09c-.45-6.48,2.47-15.58,5.13-23.87,4.54-14.13,9.24-28.74-.5-37.17C352.6,306.87,355.41,301.63,359.29,294.38ZM150.12,121.09l.14,0c24.09,5.92,27,18.82,30.61,35.14,1.85,8.32,3.77,16.93,8.64,25,1.79,3,2.51,5.43,2,6.67-1.77,4.08-15.06,6.93-24.77,9-16.29,3.5-33.14,7.11-39.52,19.22L126,218.38c-5.73,10.54-19.14,35.24,1.11,47.66,16,9.81,31.94-4.21,44.75-15.46,6.54-5.75,14.56-12.82,18.64-12.55.28,0,1,.1,2.24,1.63,10.36,13.23,28.85,13.84,45.17,14.38,10.14.34,21.63.73,24.44,4.83,18.29,26.73,4.55,51.56-5.49,69.69-1.13,2-2.19,3.95-3.13,5.75-8.57,16.29-9.83,41.77,7.65,59.22,3.49,3.49,4.54,5.89,4.73,6.84-3.78,2-22.4-1.21-42.74-24-7.83-8.78-8.83-15.39-9.79-21.78-1-6.9-2.23-14.72-12.69-19.81-4.75-2.32-11-2.92-18.17-3.62-20.48-2-41.65-4-42-39.28-.13-12.56-9.54-16.92-16.41-20.12-7.92-3.67-14.17-6.58-14.5-19.6C109,220.23,84,217.07,70.33,216.81A170.22,170.22,0,0,1,150.12,121.09Z"/><path class="cls-1" d="M220.71,29.12a6.67,6.67,0,1,0,.56,13.32,233.78,233.78,0,0,1,24.28.23H246a6.67,6.67,0,0,0,.41-13.32A246.9,246.9,0,0,0,220.71,29.12Z"/><path class="cls-1" d="M138.32,54.59a6.66,6.66,0,0,0,6.19,4.2,6.74,6.74,0,0,0,2.47-.48,227.17,227.17,0,0,1,38.38-11.47,6.67,6.67,0,0,0-2.67-13.06A240,240,0,0,0,142,45.92,6.68,6.68,0,0,0,138.32,54.59Z"/><path class="cls-1" d="M105.8,64.06A241.69,241.69,0,0,0,79.66,82.5a6.67,6.67,0,1,0,8.39,10.36,230.16,230.16,0,0,1,24.7-17.42,6.67,6.67,0,0,0-7-11.38Z"/><path class="cls-1" d="M31.52,147.08a6.67,6.67,0,0,0,9.23-1.92A230.69,230.69,0,0,1,62.56,117a6.67,6.67,0,1,0-9.87-9A243.42,243.42,0,0,0,29.6,137.85,6.66,6.66,0,0,0,31.52,147.08Z"/><path class="cls-1" d="M4.76,209.21a6.67,6.67,0,0,0,8.3-4.48,227.49,227.49,0,0,1,10-27.23,6.67,6.67,0,1,0-12.18-5.42A241.06,241.06,0,0,0,.28,200.92,6.67,6.67,0,0,0,4.76,209.21Z"/><path class="cls-1" d="M395.41,437a6.67,6.67,0,0,0-9.42-.35,230.12,230.12,0,0,1-22.73,18.54,6.67,6.67,0,0,0,3.88,12.09A6.6,6.6,0,0,0,371,466a242.48,242.48,0,0,0,24.05-19.62A6.66,6.66,0,0,0,395.41,437Z"/><path class="cls-1" d="M437.47,381.09a6.66,6.66,0,0,0-9.11,2.44A226.51,226.51,0,0,1,410,410.61a6.67,6.67,0,0,0,10.47,8.26,242,242,0,0,0,19.45-28.67A6.67,6.67,0,0,0,437.47,381.09Z"/><path class="cls-1" d="M460.65,317.6a6.68,6.68,0,0,0-8,4.95A224.62,224.62,0,0,1,444.24,350a6.67,6.67,0,1,0,12.48,4.7,239.17,239.17,0,0,0,8.88-29.06A6.67,6.67,0,0,0,460.65,317.6Z"/><path class="cls-1" d="M471.43,287.82c.45-6,.67-12,.67-18,0-4-.1-7.95-.28-11.83a6.73,6.73,0,0,0-7-6.33,6.65,6.65,0,0,0-6.33,7c.17,3.66.26,7.42.26,11.18,0,5.67-.21,11.4-.62,17.05A6.66,6.66,0,0,0,464.3,294a4.1,4.1,0,0,0,.49,0A6.66,6.66,0,0,0,471.43,287.82Z"/><path class="cls-1" d="M460.6,196.06a6.66,6.66,0,1,0-12.69,4.07,229.84,229.84,0,0,1,7.37,29.74,6.66,6.66,0,0,0,6.56,5.5,6.77,6.77,0,0,0,1.17-.1,6.67,6.67,0,0,0,5.39-7.73A239.22,239.22,0,0,0,460.6,196.06Z"/><path class="cls-1" d="M459,0H293.45a6.67,6.67,0,0,0-6.67,6.67V172.19a6.67,6.67,0,0,0,6.67,6.67H459a6.67,6.67,0,0,0,6.66-6.67V6.67A6.66,6.66,0,0,0,459,0ZM356.46,13.33H396V41.84H356.46Zm95.85,152.2H300.12V13.33h43V48.51a6.67,6.67,0,0,0,6.66,6.67h52.85a6.67,6.67,0,0,0,6.67-6.67V13.33h43Z"/><path class="cls-1" d="M362,126H329a6.67,6.67,0,0,0,0,13.33H362A6.67,6.67,0,0,0,362,126Z"/></g></g></svg>