<?xml version="1.0" encoding="utf-8"?>
<!-- Generator: Adobe Illustrator 25.0.0, SVG Export Plug-In . SVG Version: 6.00 Build 0)  -->
<svg version="1.1" id="Layer_1" xmlns="http://www.w3.org/2000/svg" xmlns:xlink="http://www.w3.org/1999/xlink" x="0px" y="0px"
	 viewBox="0 0 209.69 30.84" style="enable-background:new 0 0 209.69 30.84;" xml:space="preserve">
<style type="text/css">
	.st0{clip-path:url(#SVGID_2_);fill:#F37236;}
	.st1{clip-path:url(#SVGID_4_);fill:#43474C;}
</style>
<g>
	<g>
		<defs>
			<rect id="SVGID_1_" x="4.75" y="3.83" width="200.32" height="23.56"/>
		</defs>
		<clipPath id="SVGID_2_">
			<use xlink:href="#SVGID_1_"  style="overflow:visible;"/>
		</clipPath>
		<path class="st0" d="M4.96,3.86c0.3-0.05,0.61-0.02,0.91-0.02h15.02c0.17-0.02,0.33,0.05,0.43,0.18C23.3,6,25.27,7.99,27.25,9.97
			c0.12,0.13,0.31,0.3,0.2,0.49c-0.07,0.19-0.3,0.18-0.46,0.18H11.4v15.34c0.03,0.22-0.13,0.46-0.38,0.42
			c-0.24-0.14-0.42-0.36-0.62-0.55c-1.6-1.58-3.21-3.16-4.81-4.74C5.32,20.84,5.03,20.6,4.8,20.3c-0.07-0.32-0.03-0.65-0.04-0.96
			V4.24C4.77,4.08,4.8,3.9,4.96,3.86"/>
	</g>
	<g>
		<defs>
			<rect id="SVGID_3_" x="4.75" y="3.83" width="200.32" height="23.56"/>
		</defs>
		<clipPath id="SVGID_4_">
			<use xlink:href="#SVGID_3_"  style="overflow:visible;"/>
		</clipPath>
		<path class="st1" d="M113.99,12.8c-0.02-0.27,0.25-0.39,0.47-0.36h9.11c0.24-0.03,0.53,0.08,0.51,0.36c0.02,0.78,0.02,1.57,0,2.35
			c0.01,0.22-0.19,0.37-0.4,0.35c-1,0.02-1.99,0-2.99,0.01c-0.01,3.74,0.01,7.49-0.01,11.22c0.04,0.26-0.19,0.44-0.44,0.41
			c-0.85,0-1.7,0.02-2.55-0.01c-0.26-0.02-0.3-0.31-0.29-0.5V15.51c-1.02-0.01-2.04,0.01-3.06-0.01c-0.2,0.01-0.38-0.15-0.37-0.35
			C113.98,14.37,113.98,13.59,113.99,12.8 M22.09,12.9c-0.02-0.23,0.16-0.43,0.39-0.41c1.5-0.02,3.01,0,4.5-0.01
			c0.18,0.01,0.38-0.02,0.54,0.07c0.19,0.12,0.14,0.38,0.16,0.56c-0.01,4.43,0,8.87,0,13.3c0,0.17-0.03,0.41-0.24,0.47
			c-0.33,0.06-0.67,0.03-1,0.03H13.91c-0.16-0.01-0.36,0-0.45-0.16c-0.09-0.18-0.06-0.38-0.07-0.57c0.02-1.57-0.02-3.14,0.01-4.71
			c-0.01-0.28,0.3-0.37,0.52-0.35h8.16C22.09,18.39,22.08,15.64,22.09,12.9 M196.28,13.9v6.04c1.47,0.01,2.92-0.02,4.39,0.02
			c1.5-0.1,2.76-1.49,2.78-2.98c0.07-1.58-1.32-3.02-2.89-3.08C199.12,13.9,197.69,13.91,196.28,13.9 M194.63,12.65
			c0.1-0.13,0.24-0.27,0.43-0.25c1.8-0.01,3.58,0,5.38,0c1.11-0.01,2.21,0.39,3.05,1.1c1.33,1.09,1.93,2.99,1.41,4.65
			c-0.42,1.43-1.6,2.5-2.94,3.07c0.94,1.74,1.88,3.5,2.81,5.25c0.15,0.22,0.13,0.58-0.14,0.69c-0.43,0.05-0.87,0.04-1.3,0.01
			c-0.21,0.01-0.3-0.21-0.38-0.37c-0.87-1.81-1.75-3.6-2.64-5.4h-4.04v5.12c-0.01,0.22,0.02,0.52-0.24,0.61
			c-0.38,0.05-0.77,0.06-1.14-0.01c-0.24-0.1-0.18-0.38-0.21-0.59c0.01-4.47,0-8.93,0-13.41C194.7,12.97,194.66,12.8,194.63,12.65
			 M182.07,12.69c-0.01-0.3,0.35-0.29,0.56-0.29c2.72,0.01,5.43-0.01,8.14,0.01c0.37,0,0.36,0.44,0.35,0.71
			c0.01,0.25-0.02,0.61-0.35,0.61c-2.37,0.03-4.74,0-7.1,0.01v5.17h5.82c0.2,0.01,0.48-0.02,0.55,0.22c0.05,0.32,0.05,0.64,0,0.95
			c-0.09,0.23-0.36,0.2-0.55,0.22h-5.82v5.39c2.37,0.01,4.73-0.01,7.1,0.01c0.42,0.01,0.34,0.53,0.35,0.82
			c0.04,0.28-0.11,0.6-0.44,0.55c-2.72,0.01-5.45,0-8.17,0c-0.26,0.04-0.49-0.17-0.44-0.43C182.07,21.99,182.09,17.35,182.07,12.69
			 M169.45,12.59c0.1-0.19,0.34-0.17,0.53-0.18h8.59c0.17,0,0.41,0,0.49,0.19c0.06,0.31,0.06,0.63,0.01,0.93
			c-0.05,0.23-0.32,0.26-0.5,0.25h-3.52v12.84c0,0.18-0.02,0.45-0.25,0.49c-0.35,0.05-0.72,0.05-1.07,0
			c-0.24-0.04-0.27-0.31-0.26-0.5V13.78h-3.51c-0.21,0-0.5,0.01-0.55-0.25C169.39,13.23,169.38,12.89,169.45,12.59 M141.91,12.9
			c-0.04-0.27,0.13-0.53,0.42-0.49c2.75,0,5.51-0.01,8.26,0c0.33-0.02,0.39,0.35,0.37,0.6c0.01,0.28,0.02,0.73-0.37,0.73
			c-2.36,0.02-4.72,0-7.08,0.01v5.17c2,0.01,4.01-0.01,6.01,0.01c0.47-0.03,0.41,0.53,0.4,0.85c0.03,0.25-0.1,0.55-0.4,0.51
			c-2,0.02-4.01,0-6.01,0.01v5.4h6.98c0.24-0.03,0.49,0.13,0.46,0.4c0,0.33,0.13,0.95-0.36,0.98c-2.75,0.01-5.51,0.01-8.26,0
			c-0.26,0.04-0.46-0.18-0.42-0.43C141.9,22.07,141.91,17.48,141.91,12.9 M98.81,12.9c-0.03-0.22,0.07-0.5,0.34-0.49
			c0.85-0.02,1.7-0.02,2.56,0c0.27-0.01,0.37,0.27,0.35,0.49v5.17h5.99c0.01-1.76-0.01-3.53,0.01-5.28
			c-0.03-0.24,0.19-0.4,0.41-0.38c0.82,0,1.64-0.01,2.46,0.01c0.27-0.02,0.39,0.27,0.36,0.49v13.72c0.02,0.23-0.07,0.53-0.35,0.51
			c-0.85,0.02-1.71,0.02-2.57,0c-0.27,0-0.35-0.29-0.32-0.5v-5.43h-5.99c0,1.84,0.01,3.68-0.01,5.52c0.04,0.25-0.18,0.44-0.43,0.41
			c-0.82,0-1.65,0.02-2.48-0.01c-0.28,0.01-0.36-0.29-0.33-0.51C98.81,22.06,98.8,17.48,98.81,12.9 M75.92,12.43
			c0.87-0.06,1.76-0.02,2.64-0.02c0.28-0.04,0.44,0.24,0.4,0.49v13.72c0.02,0.2-0.05,0.5-0.31,0.51c-0.86,0.03-1.72,0.01-2.57,0.01
			c-0.23,0.03-0.42-0.17-0.39-0.4c-0.01-4.57,0-9.16-0.01-13.73C75.69,12.8,75.67,12.49,75.92,12.43 M62.6,12.9
			c-0.04-0.26,0.12-0.53,0.41-0.49c2.82-0.01,5.65,0,8.47-0.01c0.18,0.01,0.44-0.01,0.53,0.18c0.08,0.38,0.03,0.78,0.04,1.17
			c-0.01,0.5,0.04,1.01-0.03,1.5c-0.09,0.22-0.35,0.2-0.54,0.22c-1.88,0-3.76-0.01-5.64,0v2.64h4.46c0.17,0,0.36,0,0.53,0.04
			c0.26,0.11,0.19,0.43,0.21,0.66c-0.02,0.68,0.01,1.35-0.01,2.03c0.01,0.22-0.19,0.36-0.4,0.34c-1.59,0.01-3.19,0-4.78,0.01v2.83
			h5.74c0.23-0.03,0.49,0.1,0.47,0.37c0.01,0.78,0.02,1.57,0,2.35c0.01,0.26-0.26,0.37-0.47,0.34c-2.85,0-5.71,0.01-8.57-0.01
			c-0.26,0.04-0.44-0.18-0.41-0.43C62.6,22.07,62.6,17.48,62.6,12.9 M51.23,15.4v3.29h2.98c1.17,0.09,2.11-1.29,1.59-2.35
			c-0.26-0.57-0.86-0.96-1.49-0.94C53.3,15.39,52.27,15.4,51.23,15.4 M47.88,13.12c-0.02-0.29,0.05-0.75,0.44-0.71
			c2.11-0.01,4.23,0,6.34,0c1.69,0,3.32,1.03,4.07,2.54c0.66,1.29,0.66,2.92-0.08,4.19c-0.57,0.98-1.52,1.7-2.56,2.12
			c0.92,1.74,1.86,3.48,2.79,5.22c0.13,0.2,0.18,0.52-0.05,0.68c-0.19,0.09-0.42,0.05-0.63,0.07c-0.82-0.02-1.64,0.02-2.46-0.02
			c-0.21,0-0.29-0.18-0.37-0.34c-0.89-1.83-1.8-3.64-2.69-5.47h-1.45v5.22c0.02,0.23-0.06,0.52-0.33,0.51
			c-0.86,0.03-1.72,0.01-2.58,0.01c-0.25,0.03-0.48-0.15-0.44-0.42C47.87,22.2,47.88,17.65,47.88,13.12 M35.59,12.61
			c0.08-0.2,0.33-0.19,0.51-0.19h8.37c0.21-0.01,0.5,0.02,0.53,0.28c0.05,0.75,0.01,1.51,0.02,2.26c0.02,0.23-0.06,0.52-0.34,0.51
			c-1.95,0.03-3.9-0.01-5.85,0.02v3.06h4.67c0.2-0.01,0.48,0.04,0.5,0.29c0.04,0.78,0.01,1.57,0.01,2.35
			c0.03,0.24-0.15,0.46-0.41,0.42c-1.59,0.02-3.19,0-4.78,0.01v5.03c0.03,0.23-0.1,0.5-0.37,0.47c-0.85,0.01-1.71,0.02-2.58-0.01
			c-0.24,0-0.32-0.27-0.3-0.45V12.61H35.59z M154.5,12.59c-0.03-0.49,0.55-0.41,0.87-0.41c3.17,3.97,6.35,7.94,9.53,11.9V12.9
			c-0.01-0.18,0.04-0.44,0.26-0.47c0.34-0.04,0.69-0.05,1.02,0.01c0.24,0.08,0.19,0.37,0.21,0.56c-0.01,4.33,0,8.65,0,12.98
			c-0.01,0.39,0.03,0.78-0.03,1.17c-0.11,0.31-0.49,0.2-0.74,0.24c-3.22-4.04-6.45-8.06-9.68-12.09v11.34
			c0,0.18-0.02,0.44-0.25,0.49c-0.34,0.05-0.68,0.05-1.02,0c-0.27-0.07-0.24-0.39-0.24-0.61C154.48,21.87,154.48,17.22,154.5,12.59
			 M132.21,12.24c1.35-0.17,2.77-0.01,4.03,0.54c0.74,0.33,1.42,0.77,2.03,1.29c0.23,0.15,0.25,0.51,0.05,0.71
			c-0.2,0.23-0.42,0.47-0.68,0.66c-0.4-0.11-0.68-0.46-1.02-0.66c-1.21-0.78-2.69-1.24-4.13-1.01c-1.97,0.26-3.71,1.62-4.51,3.43
			c-0.94,2.03-0.65,4.57,0.73,6.34c1.12,1.49,2.99,2.37,4.84,2.27c1.21-0.02,2.36-0.51,3.31-1.24c0.25-0.15,0.46-0.41,0.77-0.43
			c0.34,0.16,0.62,0.43,0.88,0.7c0.15,0.34-0.2,0.58-0.42,0.77c-1.5,1.3-3.55,1.87-5.51,1.67c-2.1-0.18-4.1-1.3-5.35-2.99
			c-1.01-1.34-1.53-3.04-1.5-4.72c-0.02-1.97,0.81-3.91,2.23-5.27C129.11,13.17,130.62,12.44,132.21,12.24 M88.09,12.36
			c2.35-0.55,4.92,0.15,6.73,1.75c0.14,0.11,0.3,0.34,0.15,0.51c-0.45,0.55-0.96,1.05-1.43,1.59c-0.16,0.18-0.35,0.44-0.63,0.37
			c-0.2-0.07-0.36-0.24-0.54-0.36c-0.82-0.63-1.9-0.84-2.9-0.72c-1.21,0.15-2.32,0.89-2.96,1.92c-0.68,1.06-0.87,2.42-0.48,3.61
			c0.37,1.18,1.29,2.17,2.45,2.63c1.09,0.44,2.33,0.37,3.41-0.04v-1.2c-0.48-0.01-0.95,0.03-1.42-0.02
			c-0.28-0.06-0.25-0.4-0.26-0.61c0.02-0.64-0.03-1.28,0.02-1.92c0.03-0.26,0.33-0.28,0.52-0.28c1.36,0.01,2.72-0.01,4.07,0.01
			c0.26-0.01,0.37,0.26,0.34,0.47c0.01,1.82,0.03,3.65,0.03,5.47c0.02,0.25-0.11,0.46-0.34,0.55c-1.62,0.83-3.45,1.27-5.27,1.22
			c-2.11-0.06-4.17-1.07-5.53-2.69c-2.11-2.47-2.36-6.34-0.58-9.06C84.52,13.96,86.21,12.78,88.09,12.36"/>
	</g>
</g>
</svg>
