<svg xmlns="http://www.w3.org/2000/svg" viewBox="0 0 515.58 399.52"><defs><style>.cls-1{fill:#1d1d1b;}</style></defs><g id="Layer_2" data-name="Layer 2"><g id="_ÎÓÈ_1" data-name="—ÎÓÈ 1"><path class="cls-1" d="M118.11,352.43A47.09,47.09,0,1,0,71,399.52,47.14,47.14,0,0,0,118.11,352.43ZM71,386.18a33.76,33.76,0,1,1,33.76-33.75A33.79,33.79,0,0,1,71,386.18Z"/><path class="cls-1" d="M305.52,305.34a47.09,47.09,0,1,0,47.09,47.09A47.14,47.14,0,0,0,305.52,305.34Zm0,80.84a33.76,33.76,0,1,1,33.76-33.75A33.79,33.79,0,0,1,305.52,386.18Z"/><path class="cls-1" d="M244.89,352.43a6.67,6.67,0,0,0-6.67-6.67H135.91a6.67,6.67,0,1,0,0,13.33H238.22A6.67,6.67,0,0,0,244.89,352.43Z"/><path class="cls-1" d="M78.73,53.69V214.06H26.93A27,27,0,0,0,0,241V352.43a6.67,6.67,0,0,0,13.33,0V241a13.61,13.61,0,0,1,13.6-13.6h126L176,276.26a6.66,6.66,0,0,0,6,3.82H328.46a6.67,6.67,0,0,0,0-13.33H186.24l-23-48.87a6.67,6.67,0,0,0-6-3.82H137V40.1h78.62c8.64,0,19.68,6.72,23.64,14.39l54.51,105.69a6.67,6.67,0,1,0,11.85-6.11L251.07,48.38c-6.25-12.12-21.83-21.62-35.48-21.62H105.67A27,27,0,0,0,78.73,53.69Zm44.91,160.37H92.07V53.69a13.61,13.61,0,0,1,13.6-13.59h18Z"/><path class="cls-1" d="M486.6,300.92H358.87V28.15a6.67,6.67,0,1,0-13.33,0V307.58a6.67,6.67,0,0,0,6.66,6.67H486.6a6.67,6.67,0,1,0,0-13.33Z"/><path class="cls-1" d="M358.87,6.67A6.67,6.67,0,0,0,352.2,0H320.15a6.67,6.67,0,0,0-6.67,6.67V253.83a6.67,6.67,0,1,0,13.33,0V13.33H352.2A6.66,6.66,0,0,0,358.87,6.67Z"/><path class="cls-1" d="M296.18,178.82H268.61a22.9,22.9,0,0,0-22.87,22.87V251a6.67,6.67,0,1,0,13.33,0V201.69a9.55,9.55,0,0,1,9.54-9.54h27.57a6.67,6.67,0,1,0,0-13.33Z"/><path class="cls-1" d="M508.92,155.55H470.64V53.87A6.67,6.67,0,0,0,464,47.2H373.44a6.67,6.67,0,0,0,0,13.34H457.3v95H373.44a6.67,6.67,0,0,0,0,13.34H502.25V277.65H373.44a6.67,6.67,0,0,0,0,13.34H508.92a6.67,6.67,0,0,0,6.66-6.67V162.22A6.67,6.67,0,0,0,508.92,155.55Z"/><path class="cls-1" d="M403.67,138.58a6.67,6.67,0,0,0,0-13.33H386.44a6.67,6.67,0,1,0,0,13.33Z"/><path class="cls-1" d="M414.93,257.71a6.67,6.67,0,1,0,0-13.34H386.44a6.67,6.67,0,0,0,0,13.34Z"/></g></g></svg>