<svg xmlns="http://www.w3.org/2000/svg" viewBox="0 0 656.08 356.17"><defs><style>.cls-1{fill:#1d1d1b;}</style></defs><g id="Layer_2" data-name="Layer 2"><g id="_ÎÓÈ_1" data-name="—ÎÓÈ 1"><path class="cls-1" d="M495.68,299H268.83a6.67,6.67,0,1,0,0,13.34h225A44.41,44.41,0,1,0,495.68,299Zm42.62-18.48a31.14,31.14,0,1,1-31.14,31.14A31.18,31.18,0,0,1,538.3,280.56Z"/><path class="cls-1" d="M203.94,267.23A44.53,44.53,0,0,0,161.32,299H146.76a6.67,6.67,0,0,0,0,13.34h12.73a44.47,44.47,0,1,0,44.45-45.15Zm0,75.61a31.14,31.14,0,1,1,31.15-31.14A31.18,31.18,0,0,1,203.94,342.84Z"/><path class="cls-1" d="M87.11,267.23A44.47,44.47,0,1,0,131.6,311.7,44.52,44.52,0,0,0,87.11,267.23Zm0,75.61a31.14,31.14,0,1,1,31.15-31.14A31.18,31.18,0,0,1,87.11,342.84Z"/><path class="cls-1" d="M585.54,54.44H464.19a25.86,25.86,0,0,0-25.84,25.83V257.45H254a6.67,6.67,0,1,0,0,13.33H445a6.66,6.66,0,0,0,6.66-6.67V80.27a12.52,12.52,0,0,1,12.51-12.5H585.54A57.28,57.28,0,0,1,642.75,125V241.85H622.23a6.67,6.67,0,0,0,0,13.33h20.52v37.76a6.11,6.11,0,0,1-6.11,6.1H602a6.67,6.67,0,0,0,0,13.34h34.69a19.46,19.46,0,0,0,19.44-19.44V125A70.62,70.62,0,0,0,585.54,54.44Z"/><path class="cls-1" d="M539.55,113.56h79a6.67,6.67,0,0,0,0-13.33h-79a19.46,19.46,0,0,0-19.44,19.44v34.77c0,9.95,7.46,20,16.68,22.74L626.91,209a6.67,6.67,0,1,0,4.44-12.57l-90.43-31.93c-3.91-1.18-7.48-6-7.48-10.07V119.67A6.12,6.12,0,0,1,539.55,113.56Z"/><path class="cls-1" d="M17.86,245.6H396.1a6.67,6.67,0,0,0,6.67-6.67V6.67A6.66,6.66,0,0,0,396.1,0H17.86A6.66,6.66,0,0,0,11.2,6.67V238.93A6.67,6.67,0,0,0,17.86,245.6ZM24.53,13.33H389.44V232.26H24.53Z"/><path class="cls-1" d="M344.46,33a6.67,6.67,0,0,0-6.67,6.67V206a6.67,6.67,0,0,0,13.33,0V39.65A6.66,6.66,0,0,0,344.46,33Z"/><path class="cls-1" d="M289.46,33a6.66,6.66,0,0,0-6.66,6.67V206a6.67,6.67,0,0,0,13.33,0V39.65A6.67,6.67,0,0,0,289.46,33Z"/><path class="cls-1" d="M234.47,33a6.66,6.66,0,0,0-6.66,6.67V206a6.67,6.67,0,0,0,13.33,0V39.65A6.67,6.67,0,0,0,234.47,33Z"/><path class="cls-1" d="M179.49,33a6.66,6.66,0,0,0-6.67,6.67V206a6.67,6.67,0,0,0,13.33,0V39.65A6.66,6.66,0,0,0,179.49,33Z"/><path class="cls-1" d="M124.5,33a6.67,6.67,0,0,0-6.67,6.67V206a6.67,6.67,0,0,0,13.34,0V39.65A6.67,6.67,0,0,0,124.5,33Z"/><path class="cls-1" d="M69.51,33a6.66,6.66,0,0,0-6.67,6.67V206a6.67,6.67,0,0,0,13.33,0V39.65A6.66,6.66,0,0,0,69.51,33Z"/><path class="cls-1" d="M6.67,312.38H22.15a6.67,6.67,0,0,0,0-13.34H13.33V265.21a6.67,6.67,0,1,0-13.33,0v40.5A6.67,6.67,0,0,0,6.67,312.38Z"/></g></g></svg>