<?xml version="1.0" encoding="utf-8"?>
<!-- Generator: Adobe Illustrator 25.0.0, SVG Export Plug-In . SVG Version: 6.00 Build 0)  -->
<svg version="1.1" id="Layer_1" xmlns="http://www.w3.org/2000/svg" xmlns:xlink="http://www.w3.org/1999/xlink" x="0px" y="0px"
	 viewBox="0 0 14.64 14.18" style="enable-background:new 0 0 14.64 14.18;" xml:space="preserve">
<style type="text/css">
	.st0{clip-path:url(#SVGID_2_);fill:#50CAF2;}
</style>
<g>
	<defs>
		<rect id="SVGID_1_" x="1.5" y="1.39" width="11.63" height="11.4"/>
	</defs>
	<clipPath id="SVGID_2_">
		<use xlink:href="#SVGID_1_"  style="overflow:visible;"/>
	</clipPath>
	<path class="st0" d="M7.15,3.72v0.19c0,0.14,0.11,0.26,0.25,0.27c0.74,0.06,1.46,0.37,2.02,0.93c0.56,0.56,0.87,1.28,0.93,2.02
		c0.01,0.14,0.13,0.25,0.27,0.25h0.2c0.16,0,0.28-0.13,0.27-0.29c-0.07-0.91-0.45-1.8-1.14-2.49C9.24,3.9,8.35,3.52,7.44,3.45
		C7.28,3.44,7.15,3.56,7.15,3.72"/>
	<path class="st0" d="M7.15,1.66v0.19c0,0.14,0.11,0.26,0.25,0.27c1.26,0.06,2.51,0.57,3.47,1.53c0.96,0.96,1.47,2.21,1.53,3.47
		c0.01,0.14,0.13,0.25,0.27,0.25h0.19c0.15,0,0.28-0.13,0.27-0.28c-0.07-1.44-0.65-2.86-1.75-3.95c-1.1-1.1-2.51-1.68-3.95-1.75
		C7.28,1.39,7.15,1.51,7.15,1.66"/>
	<path class="st0" d="M1.53,3.66c0.38,2.19,1.42,4.31,3.11,6c1.69,1.69,3.81,2.73,6,3.11c0.38,0.12,0.84-0.18,0.99-0.68l0.5-1.65
		c0.15-0.49-0.03-0.99-0.41-1.11L9.33,8.61C9.08,8.53,8.79,8.64,8.58,8.89L8,9.64C7.85,9.82,7.58,9.86,7.38,9.73
		C6.84,9.36,6.32,8.94,5.84,8.46c-0.48-0.48-0.9-1-1.27-1.55c-0.14-0.2-0.1-0.47,0.09-0.61L5.4,5.71C5.65,5.5,5.76,5.21,5.69,4.96
		L4.96,2.58C4.84,2.2,4.35,2.01,3.85,2.16l-1.64,0.5C1.71,2.82,1.41,3.28,1.53,3.66"/>
</g>
</svg>
