<svg xmlns="http://www.w3.org/2000/svg" viewBox="0 0 76.56 76.56"><defs><style>.cls-1{fill:#343a40;}</style></defs><g id="Layer_2" data-name="Layer 2"><g id="Layer_1-2" data-name="Layer 1"><path class="cls-1" d="M38.28,76.56A38.28,38.28,0,1,1,76.56,38.28,38.32,38.32,0,0,1,38.28,76.56Zm0-73.66A35.38,35.38,0,1,0,73.66,38.28,35.42,35.42,0,0,0,38.28,2.9Z"/><path class="cls-1" d="M40.94,44.64a2.54,2.54,0,0,1-1.28,2.18v5.55H37.08V46.83a2.54,2.54,0,0,1-1.29-2.19,2.58,2.58,0,0,1,5.15,0ZM55,38.17V56.41a3.88,3.88,0,0,1-3.87,3.87H25.42a3.87,3.87,0,0,1-3.86-3.87V38.17a3.86,3.86,0,0,1,3.86-3.86h.06V29.18a12.89,12.89,0,0,1,25.77,0v5.14A3.86,3.86,0,0,1,55,38.17Zm-27-3.86H48.67V29.18a10.31,10.31,0,0,0-20.61,0Zm24.39,3.86a1.28,1.28,0,0,0-1.2-1.27H25.48v0h-.06a1.29,1.29,0,0,0-1.29,1.29V56.41a1.29,1.29,0,0,0,1.29,1.29H51.16a1.29,1.29,0,0,0,1.29-1.29Z"/></g></g></svg>