<?xml version="1.0" encoding="iso-8859-1"?>
<!-- Generator: Adobe Illustrator 17.1.0, SVG Export Plug-In . SVG Version: 6.00 Build 0)  -->
<!DOCTYPE svg PUBLIC "-//W3C//DTD SVG 1.1//EN" "http://www.w3.org/Graphics/SVG/1.1/DTD/svg11.dtd">
<svg version="1.1" id="Capa_1" xmlns="http://www.w3.org/2000/svg" xmlns:xlink="http://www.w3.org/1999/xlink" x="0px" y="0px"
	 viewBox="0 0 270.103 270.103" style="enable-background:new 0 0 270.103 270.103;" xml:space="preserve">
<g>
	<path style="fill:#222220;" d="M117.5,145.103H7.5c-4.142,0-7.5,3.358-7.5,7.5v7.707v0.505v50.516v0.505v50.517v0.25
		c0,4.142,3.358,7.5,7.5,7.5h0.25h50.517h0.505h50.517h0.505h7.707c4.142,0,7.5-3.358,7.5-7.5v-110
		C125,148.46,121.642,145.103,117.5,145.103z M110,255.103h-0.207h-0.505H58.771h-0.505H15v-43.267v-0.505v-50.516v-0.505v-0.207h95
		V255.103z"/>
	<path style="fill:#222220;" d="M262.603,254.853c-2.135,0-4.061,0.892-5.427,2.323c-1.432,1.366-2.323,3.292-2.323,5.427
		c0,4.142,3.358,7.5,7.5,7.5h0.25c4.142,0,7.5-3.358,7.5-7.5v-0.25C270.103,258.21,266.745,254.853,262.603,254.853z"/>
	<path style="fill:#222220;" d="M160.814,255.103h-0.505c-4.142,0-7.5,3.358-7.5,7.5s3.358,7.5,7.5,7.5h0.505
		c4.142,0,7.5-3.358,7.5-7.5S164.957,255.103,160.814,255.103z"/>
	<path style="fill:#222220;" d="M211.836,255.103h-0.505c-4.142,0-7.5,3.358-7.5,7.5s3.358,7.5,7.5,7.5h0.505
		c4.142,0,7.5-3.358,7.5-7.5S215.978,255.103,211.836,255.103z"/>
	<path style="fill:#222220;" d="M7.5,66.271c4.142,0,7.5-3.358,7.5-7.5v-0.505c0-4.142-3.358-7.5-7.5-7.5S0,54.125,0,58.267v0.505
		C0,62.914,3.358,66.271,7.5,66.271z"/>
	<path style="fill:#222220;" d="M7.5,117.293c4.142,0,7.5-3.358,7.5-7.5v-0.505c0-4.142-3.358-7.5-7.5-7.5s-7.5,3.358-7.5,7.5v0.505
		C0,113.935,3.358,117.293,7.5,117.293z"/>
	<path style="fill:#222220;" d="M7.5,15.25c2.135,0,4.061-0.892,5.427-2.323c1.432-1.366,2.323-3.292,2.323-5.427
		c0-4.142-3.358-7.5-7.5-7.5H7.5C3.358,0,0,3.358,0,7.5v0.25C0,11.892,3.358,15.25,7.5,15.25z"/>
	<path style="fill:#222220;" d="M109.288,15h0.505c4.142,0,7.5-3.358,7.5-7.5s-3.358-7.5-7.5-7.5h-0.505c-4.142,0-7.5,3.358-7.5,7.5
		S105.146,15,109.288,15z"/>
	<path style="fill:#222220;" d="M58.267,15h0.505c4.142,0,7.5-3.358,7.5-7.5S62.914,0,58.772,0h-0.505c-4.142,0-7.5,3.358-7.5,7.5
		S54.125,15,58.267,15z"/>
	<path style="fill:#222220;" d="M160.31,15h0.505c4.142,0,7.5-3.358,7.5-7.5s-3.358-7.5-7.5-7.5h-0.505c-4.142,0-7.5,3.358-7.5,7.5
		S156.167,15,160.31,15z"/>
	<path style="fill:#222220;" d="M211.331,15h0.505c4.142,0,7.5-3.358,7.5-7.5s-3.358-7.5-7.5-7.5h-0.505c-4.142,0-7.5,3.358-7.5,7.5
		S207.189,15,211.331,15z"/>
	<path style="fill:#222220;" d="M262.603,0h-0.25c-4.142,0-7.5,3.358-7.5,7.5c0,2.135,0.892,4.061,2.323,5.427
		c1.366,1.432,3.292,2.323,5.427,2.323c4.142,0,7.5-3.358,7.5-7.5V7.5C270.103,3.358,266.745,0,262.603,0z"/>
	<path style="fill:#222220;" d="M262.603,50.767c-4.142,0-7.5,3.358-7.5,7.5v0.505c0,4.142,3.358,7.5,7.5,7.5s7.5-3.358,7.5-7.5
		v-0.505C270.103,54.125,266.745,50.767,262.603,50.767z"/>
	<path style="fill:#222220;" d="M262.603,101.788c-4.142,0-7.5,3.358-7.5,7.5v0.505c0,4.142,3.358,7.5,7.5,7.5s7.5-3.358,7.5-7.5
		v-0.505C270.103,105.146,266.745,101.788,262.603,101.788z"/>
	<path style="fill:#222220;" d="M262.603,152.81c-4.142,0-7.5,3.358-7.5,7.5v0.505c0,4.142,3.358,7.5,7.5,7.5s7.5-3.358,7.5-7.5
		v-0.505C270.103,156.167,266.745,152.81,262.603,152.81z"/>
	<path style="fill:#222220;" d="M262.603,203.831c-4.142,0-7.5,3.358-7.5,7.5v0.505c0,4.142,3.358,7.5,7.5,7.5s7.5-3.358,7.5-7.5
		v-0.505C270.103,207.189,266.745,203.831,262.603,203.831z"/>
	<path style="fill:#222220;" d="M216.597,47.596h-44.949c-4.142,0-7.5,3.358-7.5,7.5s3.358,7.5,7.5,7.5h27.702l-57.986,57.986
		c-2.929,2.929-2.929,7.678,0,10.606c1.464,1.464,3.384,2.197,5.303,2.197s3.839-0.732,5.303-2.197l57.127-57.127v25.983
		c0,4.142,3.358,7.5,7.5,7.5s7.5-3.358,7.5-7.5V55.096C224.097,50.954,220.739,47.596,216.597,47.596z"/>
</g>
<g>
</g>
<g>
</g>
<g>
</g>
<g>
</g>
<g>
</g>
<g>
</g>
<g>
</g>
<g>
</g>
<g>
</g>
<g>
</g>
<g>
</g>
<g>
</g>
<g>
</g>
<g>
</g>
<g>
</g>
</svg>
