<?xml version="1.0" encoding="utf-8"?>
<!-- Generator: Adobe Illustrator 25.0.0, SVG Export Plug-In . SVG Version: 6.00 Build 0)  -->
<svg version="1.1" id="Layer_1" xmlns="http://www.w3.org/2000/svg" xmlns:xlink="http://www.w3.org/1999/xlink" x="0px" y="0px"
	 viewBox="0 0 14.64 14.18" style="enable-background:new 0 0 14.64 14.18;" xml:space="preserve">
<style type="text/css">
	.st0{clip-path:url(#SVGID_2_);fill:#3C4248;}
</style>
<g>
	<defs>
		<rect id="SVGID_1_" x="0.73" y="0.65" width="12.8" height="12.54"/>
	</defs>
	<clipPath id="SVGID_2_">
		<use xlink:href="#SVGID_1_"  style="overflow:visible;"/>
	</clipPath>
	<path class="st0" d="M6.94,3.21v0.21c0,0.15,0.12,0.28,0.27,0.29c0.81,0.06,1.6,0.4,2.22,1.02c0.62,0.62,0.96,1.41,1.02,2.22
		c0.01,0.15,0.14,0.27,0.29,0.27l0.21,0c0.17,0,0.31-0.15,0.29-0.32c-0.07-1-0.49-1.98-1.26-2.74C9.24,3.41,8.26,2.99,7.26,2.92
		C7.09,2.9,6.94,3.04,6.94,3.21"/>
	<path class="st0" d="M6.94,0.95v0.21c0,0.16,0.12,0.29,0.28,0.3c1.39,0.07,2.76,0.63,3.82,1.69c1.06,1.06,1.62,2.43,1.69,3.82
		c0.01,0.16,0.14,0.28,0.3,0.28h0.21c0.17,0,0.3-0.14,0.3-0.31c-0.07-1.58-0.72-3.14-1.92-4.35S8.84,0.73,7.25,0.65
		C7.08,0.64,6.94,0.78,6.94,0.95"/>
	<path class="st0" d="M0.76,3.14c0.42,2.41,1.56,4.74,3.42,6.6c1.86,1.86,4.19,3,6.6,3.42c0.42,0.13,0.92-0.2,1.09-0.75l0.55-1.81
		c0.17-0.54-0.04-1.09-0.45-1.22l-2.62-0.8C9.06,8.5,8.75,8.62,8.52,8.9L7.87,9.72C7.71,9.93,7.42,9.97,7.2,9.82
		c-0.6-0.41-1.17-0.87-1.7-1.4c-0.53-0.53-0.99-1.1-1.4-1.7C3.95,6.5,3.99,6.21,4.2,6.04L5.02,5.4c0.28-0.23,0.4-0.55,0.31-0.82
		l-0.8-2.62C4.4,1.54,3.86,1.33,3.31,1.5L1.5,2.05C0.96,2.22,0.63,2.72,0.76,3.14"/>
</g>
</svg>
