<svg xmlns="http://www.w3.org/2000/svg" viewBox="0 0 510.56 438.93"><defs><style>.cls-1{fill:#1d1d1b;}</style></defs><g id="Layer_2" data-name="Layer 2"><g id="_ÎÓÈ_1" data-name="—ÎÓÈ 1"><path class="cls-1" d="M307.22,173V128.91a21.07,21.07,0,0,0-17.91-20.66,614.11,614.11,0,0,0-79-4.76c-2.26,0-41.31,0-43.55,0a599,599,0,0,0-74.22,5,21.17,21.17,0,0,0-17.86,20.73V173a18.93,18.93,0,0,0,18.91,18.91H288.3A18.94,18.94,0,0,0,307.22,173ZM88,173V129.24c0-3.48,3-7.06,6.35-7.52a585.41,585.41,0,0,1,72.52-4.87c2.23,0,41.17,0,43.43,0a599.75,599.75,0,0,1,77.27,4.65c3.31.44,6.33,4,6.33,7.44V173a5.59,5.59,0,0,1-5.59,5.58H93.57A5.59,5.59,0,0,1,88,173Z"/><path class="cls-1" d="M159.77,252.24a6.67,6.67,0,1,0,0,13.33h62.34a6.67,6.67,0,0,0,0-13.33Z"/><path class="cls-1" d="M251.87,227a6.67,6.67,0,0,0-6.66-6.67H136.67a6.67,6.67,0,0,0,0,13.33H245.21A6.66,6.66,0,0,0,251.87,227Z"/><path class="cls-1" d="M71.6,258.91a6.66,6.66,0,0,0,6.66,6.66H114.6L129,291.89a6.67,6.67,0,0,0,5.85,3.46H247a6.69,6.69,0,0,0,5.85-3.46l14.4-26.32h36.33a6.67,6.67,0,1,0,0-13.33H263.33a6.67,6.67,0,0,0-5.85,3.46L243.08,282H138.8L124.4,255.7a6.69,6.69,0,0,0-5.85-3.46H78.26A6.66,6.66,0,0,0,71.6,258.91Z"/><path class="cls-1" d="M334.56,189a6.66,6.66,0,0,0-6.66,6.66v114a6.67,6.67,0,1,0,13.33,0V219.5l27.84-19.75c7.3-5.17,12.81-15.83,12.81-24.77V137.55A18.94,18.94,0,0,0,363,118.63H346.81a18.94,18.94,0,0,0-18.91,18.92v29.64a6.67,6.67,0,1,0,13.33,0V137.55a5.6,5.6,0,0,1,5.58-5.59H363a5.59,5.59,0,0,1,5.58,5.59V175c0,4.6-3.42,11.23-7.18,13.89l-20.13,14.28v-7.52A6.66,6.66,0,0,0,334.56,189Z"/><path class="cls-1" d="M47.31,110.08A6.67,6.67,0,0,0,54,103.42C54,85.8,65.48,81,72.34,79.76c25.81-4.79,59.75-7.57,95.58-7.82H210c37.13,0,72.47,2.69,99.51,7.58C321,81.58,327.9,90.36,327.9,103a6.67,6.67,0,1,0,13.33,0c0-19-11.51-33.39-29.33-36.61-27.8-5-64-7.79-101.88-7.79l-42.19,0c-36.59.26-71.37,3.11-97.92,8-18,3.35-29.26,17.44-29.26,36.77A6.66,6.66,0,0,0,47.31,110.08Z"/><path class="cls-1" d="M40.65,334.09v22.25A31.2,31.2,0,0,0,71.81,387.5H310.06a31.2,31.2,0,0,0,31.17-31.16V334.09a6.66,6.66,0,0,0-6.67-6.66H284.38l3.79-23.35h26.09a6.67,6.67,0,0,0,0-13.34H282.5a6.67,6.67,0,0,0-6.58,5.6L270,333a6.67,6.67,0,0,0,6.58,7.74H327.9v15.58a17.85,17.85,0,0,1-17.84,17.83H71.81A17.85,17.85,0,0,1,54,356.34V340.76h51.35a6.67,6.67,0,0,0,6.58-7.74l-6-36.68a6.68,6.68,0,0,0-6.58-5.6H68.18a6.67,6.67,0,0,0,0,13.34H93.71l3.79,23.35H47.31A6.66,6.66,0,0,0,40.65,334.09Z"/><path class="cls-1" d="M266,395.63a6.67,6.67,0,0,0-6.67,6.66V420a18.94,18.94,0,0,0,18.92,18.92h30.24A18.94,18.94,0,0,0,327.39,420V402.29a6.67,6.67,0,0,0-13.33,0V420a5.59,5.59,0,0,1-5.58,5.58H278.24a5.58,5.58,0,0,1-5.58-5.58V402.29A6.67,6.67,0,0,0,266,395.63Z"/><path class="cls-1" d="M61.15,395.63a6.67,6.67,0,0,0-6.67,6.66V420A18.94,18.94,0,0,0,73.4,438.93h30.24A18.94,18.94,0,0,0,122.56,420V402.29a6.67,6.67,0,0,0-13.34,0V420a5.58,5.58,0,0,1-5.58,5.58H73.4A5.58,5.58,0,0,1,67.82,420V402.29A6.67,6.67,0,0,0,61.15,395.63Z"/><path class="cls-1" d="M481.82,380.16V362.44a6.67,6.67,0,0,0-13.33,0v17.72a5.6,5.6,0,0,1-5.58,5.59H432.67a5.6,5.6,0,0,1-5.59-5.59V362.44a6.67,6.67,0,0,0-13.33,0v17.72a18.94,18.94,0,0,0,18.92,18.92h30.24A18.94,18.94,0,0,0,481.82,380.16Z"/><path class="cls-1" d="M12.8,199.75,40.65,219.5v90.16a6.67,6.67,0,1,0,13.33,0v-114a6.67,6.67,0,0,0-13.33,0v7.52L20.52,188.87c-3.76-2.66-7.19-9.29-7.19-13.89V137.55A5.6,5.6,0,0,1,18.92,132H35.06a5.6,5.6,0,0,1,5.59,5.59v29.64a6.67,6.67,0,1,0,13.33,0V137.55a18.94,18.94,0,0,0-18.92-18.92H18.92A18.94,18.94,0,0,0,0,137.55V175C0,183.92,5.5,194.58,12.8,199.75Z"/><path class="cls-1" d="M47.31,57.3A6.67,6.67,0,0,0,54,50.63V13.33H327.9V53a6.67,6.67,0,1,0,13.33,0V20.53l156,124.75V332.45h-122a6.67,6.67,0,1,0,0,13.34H503.89a6.67,6.67,0,0,0,6.67-6.67v-197a6.66,6.66,0,0,0-2.5-5.2L338.73,1.46A6.64,6.64,0,0,0,334.56,0H47.31a6.66,6.66,0,0,0-6.66,6.67v44A6.67,6.67,0,0,0,47.31,57.3Z"/><path class="cls-1" d="M142.35,317.89a6.66,6.66,0,0,0-6.66,6.66v27.64a6.66,6.66,0,0,0,6.66,6.67h97.17a6.66,6.66,0,0,0,6.67-6.67V324.55a6.66,6.66,0,0,0-6.67-6.66Zm90.51,27.64H149V331.22h83.84Z"/></g></g></svg>