<?xml version="1.0" encoding="utf-8"?>
<!-- Generator: Adobe Illustrator 25.0.0, SVG Export Plug-In . SVG Version: 6.00 Build 0)  -->
<svg version="1.1" id="Layer_1" xmlns="http://www.w3.org/2000/svg" xmlns:xlink="http://www.w3.org/1999/xlink" x="0px" y="0px"
	 viewBox="0 0 59.44 44.81" style="enable-background:new 0 0 59.44 44.81;" xml:space="preserve">
<style type="text/css">
	.st0{fill:#C5363C;}
	.st1{fill:#32476D;}
	.st2{fill:#FFFFFF;}
	.st3{clip-path:url(#SVGID_2_);fill:none;stroke:#32476D;stroke-width:0.439;stroke-miterlimit:10;}
	.st4{clip-path:url(#SVGID_2_);fill:#32476D;}
	.st5{clip-path:url(#SVGID_4_);fill:#32476D;}
	.st6{clip-path:url(#SVGID_6_);fill:#32476D;}
	.st7{clip-path:url(#SVGID_8_);fill:#32476D;}
	.st8{clip-path:url(#SVGID_10_);fill:#32476D;}
	.st9{clip-path:url(#SVGID_12_);fill:#32476D;}
	.st10{clip-path:url(#SVGID_14_);fill:#32476D;}
</style>
<rect x="19.49" y="10.71" class="st0" width="37.11" height="3.07"/>
<rect x="19.49" y="16.91" class="st0" width="37.11" height="3.07"/>
<rect x="19.49" y="23.04" class="st0" width="37.11" height="3.07"/>
<rect x="1.96" y="10.71" class="st1" width="19.01" height="15.41"/>
<polygon class="st2" points="4.9,16.87 9.71,16.87 11.23,12.28 12.68,16.87 17.45,16.87 13.6,19.7 15.09,24.28 11.2,21.44 
	7.3,24.24 8.78,19.7 "/>
<g>
	<defs>
		<rect id="SVGID_1_" x="1.96" y="2.8" width="54.65" height="39.03"/>
	</defs>
	<clipPath id="SVGID_2_">
		<use xlink:href="#SVGID_1_"  style="overflow:visible;"/>
	</clipPath>
	<line class="st3" x1="56.6" y1="35.21" x2="1.96" y2="35.21"/>
	<path class="st4" d="M4.63,32.66c0.18-0.26,0.27-0.62,0.27-1.07c0-0.45-0.09-0.81-0.27-1.08c-0.18-0.26-0.43-0.39-0.75-0.39
		c-0.32,0-0.57,0.13-0.75,0.39c-0.18,0.26-0.27,0.62-0.27,1.08c0,0.46,0.09,0.81,0.27,1.07c0.18,0.26,0.43,0.39,0.75,0.39
		C4.2,33.05,4.45,32.92,4.63,32.66 M2.95,33.38c-0.26-0.16-0.47-0.4-0.61-0.7c-0.14-0.31-0.21-0.67-0.21-1.09
		c0-0.42,0.07-0.78,0.21-1.08c0.14-0.31,0.34-0.54,0.61-0.7c0.26-0.16,0.57-0.25,0.93-0.25s0.67,0.08,0.93,0.25
		c0.26,0.16,0.46,0.4,0.6,0.7s0.21,0.67,0.21,1.08c0,0.42-0.07,0.78-0.21,1.09s-0.34,0.54-0.6,0.7c-0.26,0.16-0.57,0.25-0.93,0.25
		S3.21,33.54,2.95,33.38"/>
</g>
<polygon class="st1" points="11.15,29.61 10.32,33.57 9.63,33.57 8.86,30.52 8.1,33.57 7.41,33.57 6.58,29.61 7.34,29.61 
	7.81,32.41 8.52,29.61 9.21,29.61 9.92,32.4 10.38,29.61 "/>
<polygon class="st1" points="15.51,29.61 15.51,33.57 14.85,33.57 13.12,30.79 13.12,33.57 12.41,33.57 12.41,29.61 13.12,29.61 
	14.8,32.34 14.8,29.61 "/>
<polygon class="st1" points="17.04,29.61 19.58,29.61 19.58,30.19 17.76,30.19 17.76,31.2 19.39,31.2 19.39,31.78 17.76,31.78 
	17.76,32.99 19.58,32.99 19.58,33.57 17.04,33.57 "/>
<g>
	<defs>
		<rect id="SVGID_3_" x="1.96" y="2.8" width="54.65" height="39.03"/>
	</defs>
	<clipPath id="SVGID_4_">
		<use xlink:href="#SVGID_3_"  style="overflow:visible;"/>
	</clipPath>
	<path class="st5" d="M22.24,32.99c0.34,0,0.59-0.11,0.74-0.34c0.15-0.23,0.22-0.61,0.22-1.14c0-0.46-0.07-0.8-0.22-1.01
		c-0.14-0.21-0.38-0.31-0.69-0.31h-0.63v2.8H22.24z M20.95,29.61h1.36c0.53,0,0.93,0.16,1.2,0.48c0.27,0.32,0.4,0.79,0.4,1.42
		c0,0.49-0.06,0.89-0.18,1.19s-0.31,0.52-0.57,0.66s-0.59,0.21-1.01,0.21h-1.2V29.61z"/>
	<path class="st5" d="M28.71,33.01c0.2,0,0.36-0.06,0.47-0.16c0.11-0.11,0.16-0.26,0.16-0.47c0-0.22-0.07-0.38-0.2-0.48
		c-0.13-0.1-0.35-0.15-0.64-0.15h-0.49v1.27H28.71z M28.6,31.22c0.18,0,0.33-0.05,0.43-0.15c0.1-0.1,0.15-0.24,0.15-0.41
		c0-0.17-0.06-0.29-0.17-0.37c-0.11-0.08-0.29-0.12-0.52-0.12h-0.47v1.05H28.6z M27.3,29.61h1.2c0.46,0,0.8,0.08,1.04,0.25
		c0.23,0.16,0.35,0.4,0.35,0.73c0,0.2-0.05,0.37-0.14,0.5c-0.09,0.14-0.23,0.25-0.42,0.35v0.01c0.25,0.08,0.43,0.2,0.54,0.35
		c0.11,0.16,0.17,0.36,0.17,0.61c0,0.38-0.11,0.66-0.33,0.86s-0.55,0.29-0.97,0.29H27.3V29.61z"/>
	<path class="st5" d="M31.61,33.22c-0.25-0.27-0.38-0.67-0.38-1.19v-2.41h0.72v2.4c0,0.69,0.26,1.03,0.78,1.03
		c0.26,0,0.45-0.09,0.58-0.26c0.13-0.17,0.2-0.43,0.2-0.77v-2.4h0.71v2.41c0,0.53-0.13,0.93-0.38,1.19c-0.25,0.27-0.62,0.4-1.11,0.4
		C32.24,33.62,31.86,33.49,31.61,33.22"/>
	<path class="st5" d="M35.9,33.45c-0.24-0.12-0.43-0.28-0.57-0.5l0.42-0.41c0.12,0.15,0.27,0.27,0.44,0.36
		c0.17,0.09,0.34,0.14,0.51,0.14c0.19,0,0.35-0.04,0.46-0.14c0.12-0.09,0.17-0.21,0.17-0.36c0-0.1-0.02-0.19-0.06-0.26
		c-0.04-0.07-0.11-0.14-0.21-0.21c-0.1-0.07-0.26-0.16-0.47-0.26c-0.28-0.13-0.5-0.26-0.66-0.38c-0.16-0.12-0.28-0.25-0.36-0.38
		c-0.08-0.14-0.11-0.29-0.11-0.47c0-0.2,0.05-0.38,0.16-0.54c0.11-0.16,0.26-0.28,0.45-0.36c0.19-0.09,0.41-0.13,0.67-0.13
		c0.27,0,0.52,0.05,0.74,0.16c0.22,0.11,0.38,0.26,0.48,0.45l-0.46,0.34c-0.09-0.12-0.2-0.21-0.33-0.27c-0.13-0.07-0.26-0.1-0.4-0.1
		c-0.18,0-0.33,0.04-0.43,0.12c-0.1,0.08-0.16,0.19-0.16,0.33c0,0.09,0.02,0.16,0.07,0.22s0.13,0.13,0.25,0.21
		c0.12,0.08,0.31,0.17,0.56,0.29c0.36,0.17,0.61,0.35,0.75,0.53s0.22,0.41,0.22,0.69c0,0.22-0.06,0.42-0.17,0.58
		c-0.11,0.17-0.27,0.3-0.48,0.39c-0.21,0.09-0.45,0.14-0.72,0.14C36.39,33.62,36.13,33.57,35.9,33.45"/>
</g>
<rect x="39.46" y="29.61" class="st1" width="0.72" height="3.95"/>
<polygon class="st1" points="44.92,29.61 44.92,33.57 44.25,33.57 42.53,30.79 42.53,33.57 41.82,33.57 41.82,29.61 42.52,29.61 
	44.21,32.34 44.21,29.61 "/>
<polygon class="st1" points="46.45,29.61 48.99,29.61 48.99,30.19 47.16,30.19 47.16,31.2 48.79,31.2 48.79,31.78 47.16,31.78 
	47.16,32.99 48.99,32.99 48.99,33.57 46.45,33.57 "/>
<g>
	<defs>
		<rect id="SVGID_5_" x="1.96" y="2.8" width="54.65" height="39.03"/>
	</defs>
	<clipPath id="SVGID_6_">
		<use xlink:href="#SVGID_5_"  style="overflow:visible;"/>
	</clipPath>
	<path class="st6" d="M50.66,33.45c-0.24-0.12-0.43-0.28-0.57-0.5l0.42-0.41c0.12,0.15,0.27,0.27,0.44,0.36
		c0.17,0.09,0.34,0.14,0.51,0.14c0.19,0,0.35-0.04,0.46-0.14c0.12-0.09,0.17-0.21,0.17-0.36c0-0.1-0.02-0.19-0.06-0.26
		c-0.04-0.07-0.11-0.14-0.21-0.21c-0.1-0.07-0.26-0.16-0.47-0.26c-0.28-0.13-0.5-0.26-0.66-0.38c-0.16-0.12-0.28-0.25-0.36-0.38
		c-0.08-0.14-0.11-0.29-0.11-0.47c0-0.2,0.05-0.38,0.16-0.54c0.11-0.16,0.26-0.28,0.45-0.36c0.19-0.09,0.41-0.13,0.67-0.13
		c0.27,0,0.52,0.05,0.74,0.16c0.22,0.11,0.38,0.26,0.48,0.45l-0.46,0.34c-0.09-0.12-0.2-0.21-0.33-0.27c-0.13-0.07-0.26-0.1-0.4-0.1
		c-0.18,0-0.33,0.04-0.43,0.12c-0.1,0.08-0.16,0.19-0.16,0.33c0,0.09,0.02,0.16,0.07,0.22s0.13,0.13,0.25,0.21
		c0.12,0.08,0.31,0.17,0.56,0.29c0.36,0.17,0.61,0.35,0.75,0.53s0.22,0.41,0.22,0.69c0,0.22-0.06,0.42-0.17,0.58
		c-0.11,0.17-0.27,0.3-0.48,0.39c-0.21,0.09-0.45,0.14-0.72,0.14C51.15,33.62,50.89,33.57,50.66,33.45"/>
	<path class="st6" d="M54.44,33.45c-0.24-0.12-0.43-0.28-0.57-0.5l0.42-0.41c0.12,0.15,0.27,0.27,0.44,0.36
		c0.17,0.09,0.34,0.14,0.51,0.14c0.19,0,0.35-0.04,0.46-0.14c0.12-0.09,0.17-0.21,0.17-0.36c0-0.1-0.02-0.19-0.06-0.26
		c-0.04-0.07-0.11-0.14-0.21-0.21c-0.1-0.07-0.26-0.16-0.47-0.26c-0.28-0.13-0.5-0.26-0.66-0.38c-0.16-0.12-0.28-0.25-0.36-0.38
		c-0.08-0.14-0.11-0.29-0.11-0.47c0-0.2,0.05-0.38,0.16-0.54c0.11-0.16,0.26-0.28,0.45-0.36c0.19-0.09,0.41-0.13,0.67-0.13
		c0.27,0,0.52,0.05,0.74,0.16c0.22,0.11,0.38,0.26,0.48,0.45l-0.46,0.34c-0.09-0.12-0.2-0.21-0.33-0.27c-0.13-0.07-0.26-0.1-0.4-0.1
		c-0.18,0-0.33,0.04-0.43,0.12c-0.1,0.08-0.16,0.19-0.16,0.33c0,0.09,0.02,0.16,0.07,0.22s0.13,0.13,0.25,0.21
		c0.12,0.08,0.31,0.17,0.56,0.29c0.36,0.17,0.61,0.35,0.75,0.53s0.22,0.41,0.22,0.69c0,0.22-0.06,0.42-0.17,0.58
		c-0.11,0.17-0.27,0.3-0.48,0.39c-0.21,0.09-0.45,0.14-0.72,0.14C54.93,33.62,54.68,33.57,54.44,33.45"/>
	<path class="st6" d="M2.61,41.69c-0.2-0.1-0.36-0.23-0.48-0.41l0.32-0.31c0.1,0.13,0.23,0.23,0.38,0.31
		c0.15,0.08,0.3,0.12,0.45,0.12c0.18,0,0.32-0.04,0.43-0.13c0.11-0.09,0.16-0.2,0.16-0.35c0-0.1-0.02-0.18-0.06-0.25
		c-0.04-0.07-0.1-0.13-0.2-0.2c-0.09-0.07-0.23-0.15-0.41-0.24c-0.35-0.17-0.6-0.33-0.74-0.49c-0.14-0.16-0.21-0.34-0.21-0.55
		c0-0.17,0.04-0.33,0.13-0.46c0.09-0.13,0.21-0.23,0.38-0.31c0.16-0.07,0.35-0.11,0.56-0.11c0.23,0,0.43,0.05,0.62,0.14
		c0.18,0.1,0.32,0.22,0.4,0.38L3.99,39.1c-0.08-0.11-0.17-0.19-0.29-0.26c-0.12-0.06-0.24-0.09-0.37-0.09c-0.17,0-0.3,0.04-0.4,0.12
		c-0.1,0.08-0.15,0.18-0.15,0.31c0,0.08,0.02,0.15,0.06,0.21c0.04,0.06,0.11,0.12,0.22,0.19c0.11,0.07,0.27,0.15,0.49,0.26
		c0.31,0.15,0.53,0.3,0.66,0.46c0.13,0.16,0.19,0.35,0.19,0.58c0,0.19-0.05,0.35-0.14,0.5c-0.1,0.14-0.23,0.26-0.4,0.33
		c-0.17,0.08-0.38,0.12-0.6,0.12C3.02,41.83,2.8,41.78,2.61,41.69"/>
	<path class="st6" d="M5.37,41.48c-0.21-0.23-0.32-0.58-0.32-1.04v-2.08h0.54v2.07c0,0.64,0.24,0.96,0.73,0.96
		c0.48,0,0.72-0.32,0.72-0.96v-2.07h0.54v2.08c0,0.46-0.11,0.8-0.32,1.03c-0.21,0.23-0.53,0.35-0.94,0.35
		C5.9,41.83,5.59,41.72,5.37,41.48"/>
	<path class="st6" d="M9.52,40.11c0.2,0,0.36-0.06,0.46-0.17c0.11-0.12,0.16-0.28,0.16-0.49c0-0.21-0.06-0.37-0.17-0.48
		c-0.11-0.11-0.28-0.16-0.49-0.16H8.97v1.31H9.52z M8.43,38.37h1.05c0.38,0,0.68,0.09,0.87,0.27s0.3,0.44,0.3,0.79
		c0,0.36-0.1,0.64-0.31,0.83c-0.2,0.19-0.5,0.29-0.89,0.29H8.97v1.24H8.43V38.37z"/>
	<path class="st6" d="M12.48,40.11c0.2,0,0.36-0.06,0.46-0.17c0.11-0.12,0.16-0.28,0.16-0.49c0-0.21-0.06-0.37-0.17-0.48
		c-0.11-0.11-0.28-0.16-0.49-0.16h-0.51v1.31H12.48z M11.4,38.37h1.05c0.38,0,0.68,0.09,0.87,0.27s0.3,0.44,0.3,0.79
		c0,0.36-0.1,0.64-0.31,0.83s-0.5,0.29-0.89,0.29h-0.49v1.24H11.4V38.37z"/>
	<path class="st6" d="M16.31,41.05c0.17-0.24,0.25-0.56,0.25-0.97c0-0.41-0.08-0.74-0.25-0.98c-0.17-0.24-0.4-0.36-0.69-0.36
		c-0.29,0-0.52,0.12-0.69,0.36c-0.17,0.24-0.26,0.56-0.26,0.97c0,0.27,0.04,0.51,0.11,0.71c0.08,0.2,0.19,0.36,0.33,0.46
		c0.14,0.11,0.31,0.16,0.5,0.16C15.91,41.41,16.14,41.29,16.31,41.05 M14.83,41.62c-0.22-0.14-0.39-0.34-0.51-0.61
		c-0.12-0.26-0.18-0.58-0.18-0.94s0.06-0.67,0.18-0.94c0.12-0.26,0.29-0.47,0.51-0.61c0.22-0.14,0.48-0.21,0.79-0.21
		c0.3,0,0.56,0.07,0.79,0.21c0.22,0.14,0.39,0.34,0.51,0.61c0.12,0.26,0.18,0.58,0.18,0.94s-0.06,0.67-0.18,0.94
		c-0.12,0.26-0.29,0.47-0.51,0.61c-0.22,0.14-0.48,0.21-0.79,0.21C15.32,41.83,15.06,41.76,14.83,41.62"/>
	<path class="st6" d="M18.83,39.94c0.43,0,0.65-0.2,0.65-0.6c0-0.18-0.05-0.32-0.16-0.4c-0.11-0.09-0.28-0.13-0.5-0.13H18.3v1.14
		H18.83z M17.77,38.37h1.1c0.38,0,0.66,0.08,0.84,0.23c0.19,0.15,0.28,0.39,0.28,0.69c0,0.22-0.05,0.41-0.16,0.57
		c-0.11,0.16-0.26,0.27-0.45,0.33v0.01c0.07,0.04,0.12,0.09,0.16,0.14c0.04,0.05,0.07,0.1,0.1,0.17l0.51,1.27h-0.57l-0.42-1.08
		c-0.05-0.13-0.11-0.22-0.18-0.26c-0.07-0.04-0.19-0.07-0.35-0.07H18.3v1.41h-0.53V38.37z"/>
</g>
<polygon class="st1" points="20.39,38.37 20.39,38.77 21.43,38.77 21.43,41.78 21.96,41.78 21.96,38.77 23,38.77 23,38.37 "/>
<rect x="23.55" y="38.37" class="st1" width="0.53" height="3.41"/>
<polygon class="st1" points="27.04,38.37 27.04,40.88 25.5,38.37 24.96,38.37 24.96,41.78 25.49,41.78 25.49,39.23 27.06,41.78 
	27.57,41.78 27.57,38.37 "/>
<g>
	<defs>
		<rect id="SVGID_7_" x="1.96" y="2.8" width="54.65" height="39.03"/>
	</defs>
	<clipPath id="SVGID_8_">
		<use xlink:href="#SVGID_7_"  style="overflow:visible;"/>
	</clipPath>
	<path class="st7" d="M30.93,39.99v1.79h-0.38l-0.07-0.21c-0.22,0.17-0.49,0.26-0.82,0.26c-0.29,0-0.55-0.07-0.76-0.21
		c-0.22-0.14-0.38-0.34-0.49-0.61c-0.11-0.26-0.17-0.57-0.17-0.94c0-0.36,0.06-0.66,0.19-0.93c0.12-0.26,0.3-0.47,0.53-0.61
		c0.23-0.15,0.49-0.22,0.8-0.22c0.26,0,0.49,0.05,0.69,0.15c0.2,0.1,0.34,0.23,0.44,0.41l-0.3,0.28c-0.08-0.13-0.2-0.23-0.33-0.3
		c-0.14-0.07-0.3-0.1-0.49-0.1c-0.31,0-0.56,0.12-0.73,0.35c-0.17,0.23-0.26,0.56-0.26,0.98c0,0.43,0.08,0.76,0.25,1
		c0.17,0.24,0.4,0.35,0.7,0.35c0.13,0,0.26-0.02,0.38-0.06c0.12-0.04,0.22-0.09,0.31-0.16v-0.84h-0.79v-0.38H30.93z"/>
</g>
<polygon class="st1" points="35.02,38.37 34.16,41.08 33.3,38.37 32.73,38.37 33.91,41.78 34.41,41.78 35.59,38.37 "/>
<polygon class="st1" points="36.14,38.37 36.14,41.78 38.26,41.78 38.26,41.35 36.67,41.35 36.67,40.21 38.09,40.21 38.09,39.77 
	36.67,39.77 36.67,38.8 38.26,38.8 38.26,38.37 "/>
<polygon class="st1" points="38.7,38.37 38.7,38.77 39.74,38.77 39.74,41.78 40.28,41.78 40.28,38.77 41.31,38.77 41.31,38.37 "/>
<polygon class="st1" points="41.91,38.37 41.91,41.78 44.03,41.78 44.03,41.35 42.44,41.35 42.44,40.21 43.86,40.21 43.86,39.77 
	42.44,39.77 42.44,38.8 44.03,38.8 44.03,38.37 "/>
<g>
	<defs>
		<rect id="SVGID_9_" x="1.96" y="2.8" width="54.65" height="39.03"/>
	</defs>
	<clipPath id="SVGID_10_">
		<use xlink:href="#SVGID_9_"  style="overflow:visible;"/>
	</clipPath>
	<path class="st8" d="M45.83,39.94c0.43,0,0.65-0.2,0.65-0.6c0-0.18-0.05-0.32-0.16-0.4c-0.11-0.09-0.28-0.13-0.5-0.13H45.3v1.14
		H45.83z M44.77,38.37h1.1c0.38,0,0.66,0.08,0.85,0.23c0.19,0.15,0.28,0.39,0.28,0.69c0,0.22-0.05,0.41-0.16,0.57
		c-0.11,0.16-0.26,0.27-0.45,0.33v0.01c0.06,0.04,0.12,0.09,0.16,0.14c0.04,0.05,0.07,0.1,0.1,0.17l0.51,1.27h-0.57l-0.42-1.08
		c-0.05-0.13-0.11-0.22-0.18-0.26c-0.07-0.04-0.19-0.07-0.35-0.07H45.3v1.41h-0.53V38.37z"/>
</g>
<path class="st1" d="M48.88,39.06l0.5,1.61h-1L48.88,39.06z M48.64,38.37l-1.17,3.42h0.56l0.21-0.68h1.27l0.21,0.68h0.57l-1.17-3.42
	H48.64z"/>
<polygon class="st1" points="52.91,38.37 52.91,40.88 51.37,38.37 50.83,38.37 50.83,41.78 51.36,41.78 51.36,39.23 52.93,41.78 
	53.44,41.78 53.44,38.37 "/>
<g>
	<defs>
		<rect id="SVGID_11_" x="1.96" y="2.8" width="54.65" height="39.03"/>
	</defs>
	<clipPath id="SVGID_12_">
		<use xlink:href="#SVGID_11_"  style="overflow:visible;"/>
	</clipPath>
	<path class="st9" d="M54.6,41.69c-0.2-0.1-0.36-0.23-0.48-0.41l0.32-0.31c0.1,0.13,0.23,0.23,0.38,0.31
		c0.15,0.08,0.3,0.12,0.45,0.12c0.18,0,0.32-0.04,0.43-0.13c0.11-0.09,0.16-0.2,0.16-0.35c0-0.1-0.02-0.18-0.06-0.25
		c-0.04-0.07-0.1-0.13-0.2-0.2c-0.1-0.07-0.23-0.15-0.42-0.24c-0.35-0.17-0.6-0.33-0.74-0.49c-0.14-0.16-0.21-0.34-0.21-0.55
		c0-0.17,0.04-0.33,0.13-0.46c0.09-0.13,0.21-0.23,0.38-0.31c0.16-0.07,0.35-0.11,0.56-0.11c0.23,0,0.43,0.05,0.62,0.14
		c0.18,0.1,0.32,0.22,0.4,0.38l-0.34,0.25c-0.08-0.11-0.17-0.19-0.29-0.26c-0.11-0.06-0.24-0.09-0.37-0.09
		c-0.17,0-0.3,0.04-0.4,0.12c-0.1,0.08-0.15,0.18-0.15,0.31c0,0.08,0.02,0.15,0.06,0.21c0.04,0.06,0.11,0.12,0.22,0.19
		c0.11,0.07,0.27,0.15,0.49,0.26c0.31,0.15,0.53,0.3,0.66,0.46c0.13,0.16,0.19,0.35,0.19,0.58c0,0.19-0.05,0.35-0.14,0.5
		c-0.1,0.14-0.23,0.26-0.4,0.33c-0.17,0.08-0.38,0.12-0.6,0.12C55.01,41.83,54.8,41.78,54.6,41.69"/>
	<path class="st9" d="M2.88,7.46C2.55,7.11,2.39,6.6,2.39,5.94V2.87h1.03v3.06c0,0.81,0.3,1.22,0.91,1.22
		c0.61,0,0.92-0.41,0.92-1.22V2.87h1.04v3.07c0,0.67-0.16,1.17-0.5,1.52C5.46,7.8,4.98,7.97,4.34,7.97C3.69,7.97,3.21,7.8,2.88,7.46
		"/>
	<path class="st9" d="M8.55,7.74C8.25,7.59,8,7.37,7.81,7.08l0.6-0.58c0.16,0.19,0.35,0.34,0.57,0.46c0.23,0.12,0.44,0.18,0.63,0.18
		c0.22,0,0.4-0.05,0.53-0.15c0.13-0.1,0.2-0.23,0.2-0.4c0-0.12-0.02-0.22-0.07-0.3c-0.04-0.08-0.12-0.15-0.24-0.23
		C9.92,5.99,9.72,5.89,9.45,5.75C9.09,5.57,8.81,5.41,8.6,5.26C8.39,5.1,8.24,4.94,8.14,4.76C8.04,4.58,8,4.37,8,4.13
		c0-0.26,0.07-0.5,0.21-0.7c0.14-0.2,0.34-0.36,0.59-0.47C9.05,2.85,9.34,2.8,9.67,2.8c0.36,0,0.69,0.07,0.97,0.21
		c0.28,0.14,0.48,0.33,0.61,0.58L10.6,4.07c-0.24-0.3-0.53-0.44-0.88-0.44c-0.22,0-0.39,0.04-0.51,0.13
		C9.08,3.84,9.02,3.96,9.02,4.12c0,0.1,0.03,0.18,0.09,0.26c0.06,0.08,0.17,0.16,0.33,0.25s0.4,0.21,0.71,0.36
		c0.31,0.14,0.55,0.29,0.72,0.43s0.3,0.3,0.38,0.48c0.08,0.18,0.11,0.39,0.11,0.63c0,0.29-0.07,0.54-0.22,0.76
		C11,7.51,10.79,7.68,10.52,7.8S9.94,7.97,9.58,7.97C9.2,7.97,8.86,7.9,8.55,7.74"/>
</g>
<path class="st1" d="M15.38,6.24l-0.61-2.01l-0.62,2.01H15.38z M15.63,7.07H13.9L13.65,7.9h-1.08l1.74-5.03h0.91l1.74,5.03h-1.08
	L15.63,7.07z"/>
<polygon class="st1" points="25.07,2.87 23.32,7.9 22.38,7.9 20.63,2.87 21.71,2.87 22.86,6.59 23.99,2.87 "/>
<polygon class="st1" points="26.51,2.87 29.86,2.87 29.86,3.7 27.55,3.7 27.55,4.85 29.61,4.85 29.61,5.67 27.55,5.67 27.55,7.07 
	29.86,7.07 29.86,7.9 26.51,7.9 "/>
<polygon class="st1" points="32.63,3.63 31.13,3.63 31.13,2.87 35.16,2.87 35.16,3.63 33.66,3.63 33.66,7.9 32.63,7.9 "/>
<polygon class="st1" points="36.64,2.87 39.99,2.87 39.99,3.7 37.68,3.7 37.68,4.85 39.74,4.85 39.74,5.67 37.68,5.67 37.68,7.07 
	39.99,7.07 39.99,7.9 36.64,7.9 "/>
<g>
	<defs>
		<rect id="SVGID_13_" x="1.96" y="2.8" width="54.65" height="39.03"/>
	</defs>
	<clipPath id="SVGID_14_">
		<use xlink:href="#SVGID_13_"  style="overflow:visible;"/>
	</clipPath>
	<path class="st10" d="M43.31,5.17c0.26,0,0.46-0.07,0.6-0.2s0.21-0.32,0.21-0.58c0-0.47-0.27-0.7-0.82-0.7h-0.62v1.47H43.31z
		 M41.64,2.87h1.78c0.57,0,1,0.12,1.28,0.35c0.28,0.23,0.42,0.58,0.42,1.05c0,0.33-0.07,0.61-0.21,0.85
		c-0.14,0.24-0.34,0.41-0.6,0.51v0.01c0.09,0.07,0.16,0.13,0.21,0.19c0.05,0.06,0.09,0.13,0.13,0.2l0.74,1.86h-1.1l-0.58-1.53
		c-0.06-0.15-0.13-0.26-0.22-0.31c-0.09-0.05-0.25-0.08-0.47-0.08h-0.34V7.9h-1.03V2.87z"/>
</g>
<path class="st1" d="M49.09,6.24l-0.61-2.01l-0.62,2.01H49.09z M49.34,7.07h-1.73L47.36,7.9h-1.08l1.74-5.03h0.91l1.74,5.03h-1.08
	L49.34,7.07z"/>
<polygon class="st1" points="55.18,2.87 55.18,6.13 53.16,2.87 52.16,2.87 52.16,7.9 53.19,7.9 53.19,4.59 55.25,7.9 56.21,7.9 
	56.21,2.87 "/>
</svg>
